<svg width="92" height="95" viewBox="0 0 92 95" fill="none" xmlns="http://www.w3.org/2000/svg">
<path d="M3 91.8299C14.1223 89.8127 25.8732 87.488 34.2564 79.8889C41.0991 73.6715 44.8157 64.5008 45.5065 55.2921C45.9072 49.9485 46.1973 44.6292 46.8364 39.3064C49.2784 19.2724 68.6354 9.83572 80.072 3" stroke="#A6B82E" stroke-width="4.52146" stroke-miterlimit="10" stroke-linecap="round"/>
<path d="M17.2725 87.7609C17.2725 87.7609 5.90155 77.7129 14.5092 60.2211C15.0481 59.1435 17.2311 56.4527 18.5609 49.7275C19.0825 48.9192 33.4344 63.4438 31.6314 81.1601" stroke="#A6B82E" stroke-width="4.52146" stroke-miterlimit="10" stroke-linecap="round"/>
<path d="M45.686 50.4943C45.686 50.4943 27.5276 46.6947 26.6399 29.3135C26.5916 28.2428 27.1235 25.1962 25.2375 19.3795C25.2928 18.5228 40.2734 23.179 46.5668 37.79" stroke="#A6B82E" stroke-width="4.52146" stroke-miterlimit="10" stroke-linecap="round"/>
<path d="M52.7429 26.5295C52.7429 26.5295 64.5975 39.3547 79.8129 31.2341C80.749 30.7263 83.0633 28.7195 88.9733 27.3482C89.6641 26.8611 76.8562 13.8563 61.2332 15.9495" stroke="#A6B82E" stroke-width="4.52146" stroke-miterlimit="10" stroke-linecap="round"/>
<path d="M38.4014 78.0755C38.4014 78.0755 57.9276 86.3654 70.2415 71.2398C70.9945 70.3037 72.5316 67.195 78.0962 63.1848C78.6109 62.373 60.0588 53.3405 43.3788 66.8427" stroke="#A6B82E" stroke-width="4.52146" stroke-miterlimit="10" stroke-linecap="round"/>
</svg>
