<svg xmlns="http://www.w3.org/2000/svg" viewBox="0 0 844.22 844.2"><defs><style>.cls-1{fill:#59502a;}.cls-2{fill:#fcfcfc;}.cls-3{fill:#fefefe;}.cls-4{fill:#9dad3a;}.cls-5{fill:#9ead3a;}.cls-6{fill:#9eae3b;}.cls-7{fill:#9eae3a;}.cls-8{fill:#d3d3bf;}.cls-9{fill:#fdfdfd;}.cls-10{fill:#f6f6f4;}.cls-11{fill:#59502b;}.cls-12{fill:#5a512b;}.cls-13{fill:#9faf3d;}</style></defs><title>Asset 1</title><g id="Layer_2" data-name="Layer 2"><g id="Layer_1-2" data-name="Layer 1"><path class="cls-1" d="M392.95,843.13l-8.37-.41c-2.08-1.09-4.44,0-6.56-.87-22.33-1.37-44.19-5.85-65.64-11.72a441.68,441.68,0,0,1-65.28-23.39,426.56,426.56,0,0,1-85.53-52,406.56,406.56,0,0,1-51.76-48,427.66,427.66,0,0,1-54.38-74.42C44,612.47,34.72,591.48,26.39,570c-9.6-24.73-15.42-50.36-21-76.1-1.87-8.66-2.13-17.67-3.12-26.51-.78-2,.44-4.31-.88-6.24L1,453.73c-.91-3.27.59-6.75-.88-10l.08-44.28c1.3-3.34-.16-6.93.9-10.29l.35-7.11c1.1-2.08,0-4.46.9-6.56,2.18-26.72,8.17-52.71,15.89-78.26A399.85,399.85,0,0,1,45.2,231a452.19,452.19,0,0,1,48.33-74.81C107.32,138.77,123,123,139.39,108a403.32,403.32,0,0,1,97.87-65.91C275.65,23.71,315.8,11,358,5.08c6.27-.89,12.52-1.87,18.79-2.81,2-.78,4.31.44,6.24-.88L390.47,1c3.27-.91,6.75.59,10-.88l43.27,0c3.25,1.43,6.76-.08,10,.9l7.35.35c2,1.27,4.29.06,6.32.9,47.51,5.9,93.15,18.2,136.39,39.13A425.56,425.56,0,0,1,690.44,96.9,420.06,420.06,0,0,1,806,247.42c15.42,33.73,26.53,68.81,32,105.58.69,4.64,1.76,9.21,2.65,13.82,1,2-.38,4.34,1,6.26l.29,4.93c.83,2.11-.22,4.48.87,6.56l.41,8.37c.94,3.79-.46,7.75.83,11.52q0,17.17.09,34.33c-1.54,4.06.15,8.37-1,12.47l-.29,7.42c-1.43,2.36.07,5.1-1,7.51-4,31.64-10.24,62.8-20.85,93a427.17,427.17,0,0,1-75.44,133.2,422.51,422.51,0,0,1-98.41,86.54,404.31,404.31,0,0,1-98.25,45.55,420,420,0,0,1-72.47,15.92c-3.42.42-6.82,1-10.23,1.49-2.11.83-4.48-.22-6.56.87l-8.37.41c-3.74,1-7.67-.5-11.39.87H404.34C400.62,842.63,396.69,844.09,392.95,843.13Z"/><path class="cls-2" d="M843.11,451.27a48.08,48.08,0,0,1,1-12.47C843.72,442.95,845.1,447.24,843.11,451.27Z"/><path class="cls-2" d="M439.89,844a39.86,39.86,0,0,1,11.39-.87C447.6,845.06,443.68,843.74,439.89,844Z"/><path class="cls-2" d="M392.95,843.13a39.81,39.81,0,0,1,11.39.87C400.54,843.74,396.62,845.06,392.95,843.13Z"/><path class="cls-2" d="M844,404.46a41.74,41.74,0,0,1-.83-11.52C845.07,396.66,843.77,400.61,844,404.46Z"/><path class="cls-2" d="M400.44.14a28.53,28.53,0,0,1-10,.88C393.66-.82,397.12.47,400.44.14Z"/><path class="cls-2" d="M453.76,1.06a31.51,31.51,0,0,1-10-.9C447.06.47,450.55-.85,453.76,1.06Z"/><path class="cls-2" d="M1.14,389.19a33.62,33.62,0,0,1-.9,10.29C.46,396-.89,392.47,1.14,389.19Z"/><path class="cls-2" d="M.16,443.77a29.13,29.13,0,0,1,.88,10C-.81,450.55.48,447.09.16,443.77Z"/><path class="cls-2" d="M841.84,466.19c-.07-2.55-.12-5.11,1-7.51C842.55,461.19,843.71,463.89,841.84,466.19Z"/><path class="cls-2" d="M459.64,842.72a13.49,13.49,0,0,1,6.56-.87C464.2,843.56,461.85,842.64,459.64,842.72Z"/><path class="cls-2" d="M378,841.86a13.47,13.47,0,0,1,6.55.87C382.37,842.64,380,843.56,378,841.86Z"/><path class="cls-2" d="M1.4,461.17a11.13,11.13,0,0,1,.88,6.24C.7,465.51,1.57,463.26,1.4,461.17Z"/><path class="cls-2" d="M842.73,384.57a13.49,13.49,0,0,1-.87-6.56C843.57,380,842.65,382.36,842.73,384.57Z"/><path class="cls-2" d="M2.38,375.52a13,13,0,0,1-.9,6.56C1.57,379.87.64,377.51,2.38,375.52Z"/><path class="cls-2" d="M841.58,373.08a11.57,11.57,0,0,1-1-6.26C842.33,368.69,841.39,371,841.58,373.08Z"/><path class="cls-2" d="M467.43,2.31a12.29,12.29,0,0,1-6.32-.9C463.24,1.56,465.51.67,467.43,2.31Z"/><path class="cls-2" d="M383,1.39a12,12,0,0,1-6.24.88C378.7.69,380.94,1.56,383,1.39Z"/><path class="cls-3" d="M18.19,421.65c0-222.77,181.56-403.88,405.24-403.37,224.77.51,405.68,186,402.32,410-3.3,220.25-186.14,401.35-411.11,397.42C198.25,822,18.31,644.64,18.19,421.65Z"/><path class="cls-1" d="M742.28,433c-14.08,0-28.18.35-42.24-.15-6.22-.22-8.38,1.36-8.76,7.82-2.3,39.91-13.41,77.45-33.72,111.77C612.08,629.27,545.05,675,456,684.91c-134.85,15-256.3-71.81-287.65-203.8a236.56,236.56,0,0,1-6.11-43c-.2-4.11-1.51-5.44-5.84-5.4-29.62.22-59.23.07-88.85.15-5,0-8.9-1.75-11.22-6.24a10.81,10.81,0,0,1,.85-11.75C60,410.92,64,410,68.63,410c28.58.07,57.16-.13,85.74.18,5.63.06,7.65-1.05,8.09-7.11,4.72-65.07,29.81-121.37,75.65-167.64,49.75-50.22,110.38-76.85,181.34-78.94C550.33,152.67,663.24,244,687.78,373.37a184.74,184.74,0,0,1,3.7,30.76c.09,4.74,1.74,6.12,6.56,6.08,29.82-.24,59.65-.19,89.47-.08,10,0,15.72,8.51,11.45,16.7-2.35,4.51-6.34,6.17-11.32,6.15C772.52,432.91,757.4,433,742.28,433Z"/><path class="cls-1" d="M711.17,272.88c9.15-5,16.65-9.12,24.12-13.27,1-.57,2.53-1.25,1.89-2.76-3.29-7.72,4.63-6.52,7.47-9.2,1.73-1.64,2.8.69,3.57,2.05,3.44,6.12,6.79,12.3,10.22,18.42,1.07,1.9,2.36,4.1-.71,4.87-3.31.84-6,7-9.83,2.26-2.7-3.32-4.43-3-7.58-1.17-13.63,7.77-27.46,15.19-41,23-3.57,2.05-4.76,1.19-7-2-5.43-7.59-5.56-14.09-.25-22.12,6.44-9.74,11.31-20.51,16.09-31.83q-10.84,6-21.69,12.05c-1.43.79-1.48,1.87-.77,3.1,1.6,2.79,0,3.92-2.24,5.24-7.2,4.25-7.14,4.33-11.16-2.94-2.6-4.7-5.31-9.34-7.82-14.08-.83-1.57-3.24-3.79.18-4.91s6.17-6.9,9.85-2.7c3.05,3.48,4.87,2.93,8.12,1.05q14.47-8.38,29.23-16.25c2.8-1.5,4.16-2.89,2.79-6.18-2.82-6.81,4.32-5.48,6.84-7.77,3.29-3,3.68,1.15,5.05,2.77,9,10.69,8.81,21,.67,32.57C721.05,251.75,717,261.81,711.17,272.88Z"/><path class="cls-1" d="M253,174a21.79,21.79,0,0,1-1.78,2.18c-5.78,5.63-11.67,11.13-17.33,16.87-1.86,1.88-3.24,1.63-4.43-.21-2.05-3.17-9-4.64-3.51-10.67,1.3-1.42-1.61-3-2.81-4.23-6.62-6.88-6.67-6.87-13.56-.45-3,2.82-5.87,5.85-9,8.52-2.18,1.85-1.93,3.12,0,4.89,2.14,1.93,4,4.18,6,6.23.81.81,1.39,1.73,3.08,1.13,3.75-1.33,10.19,2,11.37,5.35.67,1.92-.88,2.58-1.82,3.51-5.45,5.37-11,10.65-16.46,16-1.56,1.53-3.29,3.31-4.89.54-1.71-3-8.43-4-4.72-8.88,2.9-3.8,1.6-5.4-1-8-7.9-7.9-15.6-16-23.3-24.07-2-2.11-3.47-3.46-6.63-1.15-5.84,4.27-6.83-3-9.81-5.06-3.42-2.38.67-3.65,1.87-4.89,4.89-5.05,9.94-9.95,15.11-14.71,1.24-1.15,2.5-4.1,4.93-1.62s7.32,5.68,5.89,7.71c-4.21,6,1.49,7.22,3.48,10.29,3.1,4.79,5.86,4.31,9.31.09a93.82,93.82,0,0,1,10.17-10c2.3-2.07,2.88-3.68.18-5.9a49.51,49.51,0,0,1-5.09-5.41c-1.36-1.52-2.72-2.59-4.63-.76s-3.35,1.42-5.05-.58c-6.6-7.75-8.11-4.59.37-12.77,4.31-4.16,8.78-8.19,12.9-12.53,2.13-2.24,3.51-2.16,5.3.16,2.61,3.39,8.16,6,2.25,11.24-1.53,1.35.41,2.56,1.33,3.52,8.59,9,17.27,17.82,25.8,26.84,1.84,2,3.12,1.79,5.17.32C244.54,165.42,252.89,170.14,253,174Z"/><path class="cls-1" d="M535.23,83.43c-1.49,9.5-2.15,20.17-13.47,25.36-.84.38-2.38,1-1.66,2.15,2.87,4.61.48,11.56,7.41,14.55,5.5,2.37.39,6.79.48,10.24.08,3.22-2.67,2.07-4.67,1.61-5.23-1.2-10.45-2.58-15.75-3.36-4.27-.63-5-2.81-3.82-6.33a29.09,29.09,0,0,0,1-14.66c-.57-3.18-8-7.27-12-5.91-3.4,1.16-2.6,5-3.22,7.83-.25,1.14.7,1.67,1.65,2.26,5.3,3.32.76,7.38.33,10.87s-3.79,1.29-5.66.93c-6.48-1.26-12.88-2.89-19.32-4.39-1.88-.44-5.06-.24-3.65-3.32s-1-9.13,4.76-9.08c4.69,0,5.3-2.21,6-5.64,2.24-10.5,4.63-21,7-31.42.78-3.37,1.34-5.89-3.19-7.66-5.86-2.28-.33-6.58-.58-10-.22-3.06,2.1-2.57,4.35-2,12.06,2.81,24.2,5.28,36.23,8.23C529.91,66.7,535.48,72.93,535.23,83.43Z"/><path class="cls-4" d="M133,377.92c-.5,2.76-1.5,7.4-2.12,12.08-.58,4.42-3.28,5.11-7,4.91-21.43-1.18-36.73-11-44.78-31.34-5.53-13.95-8.34-28.46-9.45-43.36-.2-2.71-.49-5,3.74-3.41,16.28,6.25,31.94,13.52,44.93,25.52C128.1,351.38,132.72,362.71,133,377.92Z"/><path class="cls-4" d="M722.42,375.89c.14-13.74,5.26-25.26,15.55-34.44C750.83,330,766.1,322.83,782,316.8c3.15-1.19,4-.48,3.76,2.78-1.48,18-4.5,35.67-13.34,51.73-9.1,16.52-24.14,22.83-42.19,23.6-3.2.14-4.92-1.13-5.67-4.33A66.48,66.48,0,0,1,722.42,375.89Z"/><path class="cls-1" d="M424.89,85.87c.83,0,1.66,0,2.48,0,13-.31,13-.31,13.76,12.6.93,15.87-5.31,23.8-21.2,26.46a76.64,76.64,0,0,1-21,.51c-9.84-1.08-16.31-7-18.28-16.72a117.34,117.34,0,0,1-1.69-31.48c1.05-15,10.27-23.52,25.24-24.71,9.54-.76,19,.57,28.45,1.37,3.27.27,4.67,1.67,4.53,5.12-.15,3.7.53,7.44.41,11.14-.08,2.6,1.92,7.14-3.51,6.45-4.05-.52-10.5,4.45-11.59-4.25-.51-4.07-2.71-5.52-6.74-5-2.65.36-5.39-.05-8,.27-7.66.92-12,5.46-12,13.22,0,7,.58,14,1.06,21a8.61,8.61,0,0,0,3.87,6.76c3.85,2.63,17.69,2.4,21.59-.35,2.2-1.56,3.53-3.65,3.05-6.33-.55-3.13-3.39-1.54-5.14-1.92a25,25,0,0,0-7.4-.4c-3.93.34-4.45-1.43-4.87-5-.76-6.45,1.08-9.14,7.79-8.38C418.65,86.65,421.8,86,424.89,85.87Z"/><path class="cls-1" d="M283.27,94.71c-5.38,2.61-11,4.82-16,8-2.37,1.52.59,4,1.43,5.83,3.3,7.25,3.36,7.11,10.73,3.78,2.54-1.14,5.71-4.49,7.65-2.66,2.82,2.67,4.1,7,5.91,10.68.79,1.6-.67,2.14-1.72,2.68-1.65.85-3.36,1.58-5,2.4-7.84,3.82-7.52,3.69-4.12,11.66,1.88,4.41,3.69,5,7.59,2.48a47.23,47.23,0,0,1,9-4.18c3.57-1.38,5.23-3.11,3.72-7.33-1.87-5.21,3.33-5.1,6-6.76,3.63-2.24,4.11,1.07,5.09,3.12,2.4,5,7.32,10.8,6.22,14.95s-9,5.32-14,7.75q-16.13,7.9-32.39,15.53c-1.87.87-4.81,3.77-5.86-.51-.81-3.29-7.27-6.34-1.12-10.26,2.51-1.6,2.56-3,1.31-5.56q-8.11-16.37-15.81-32.94c-1.06-2.28-2.18-3.35-4.67-2.35-7.28,2.95-6-4.27-8-7.14-2.69-3.9,1.87-4.17,3.8-5.12,13.89-6.82,28-13.26,41.81-20.22,4.3-2.16,6.17-1.38,7.67,3,1.14,3.29,3.24,6.24,4.46,9.51.76,2,4.33,4.63-.15,6.46-3.15,1.29-6.39,5.82-9.84.15C286.16,96.39,285.35,94.63,283.27,94.71Z"/><path class="cls-1" d="M626.37,112c-3.11,5.43-6,11.47-9.89,16.73-1.6,2.16-4.25-1.19-6.34-2.11-1.47-.64-4-1.35-2.66-4,2.93-5.71-.5-8-5-9.87a21.33,21.33,0,0,1-2.17-1.2c-9.73-5.4-9.59-5.34-14.31,4.47-1.27,2.63-.52,3.62,1.65,4.64,1.49.7,2.9,1.59,4.35,2.39,7.29,4.06,6.9,3.87,3.36,11.42-2.47,5.25-5.06,5.69-9.18,2.29a5.66,5.66,0,0,0-1.63-.89c-2.56-.95-5.34-4.59-7.34-2.87-2.8,2.41-4.16,6.53-6,10-.87,1.62.68,2.08,1.7,2.66,3.23,1.84,6.56,3.51,9.7,5.5,3.75,2.37,6.69,3.64,10.22-1,3.17-4.15,6,.93,8.87,2,3.23,1.17,1,3.36.07,4.94-2.83,5-4.78,12.54-9,14.18s-9.93-4.38-14.94-7.08c-10.55-5.67-21-11.6-31.43-17.42-2-1.09-4.85-2.19-2.39-4.88,2.26-2.47,1.28-8.94,7.38-6.84,3,1,4.35.34,5.8-2.35,5.66-10.56,11.55-21,17.37-31.46.91-1.63,2.18-3,0-4.82-1.32-1.1-4.11-1.77-3.39-3.87A41.61,41.61,0,0,1,575.9,84c.85-1.32,2.2-.44,3.3.17q22.47,12.5,44.94,25C625.17,109.7,626.54,110,626.37,112Z"/><path class="cls-1" d="M656.1,193.6a77.11,77.11,0,0,0-5.67-7.15c-1.43-1.47-2.85-4.91-5.06-3.44-3.35,2.23-6,5.58-8.64,8.75-.79,1,1,2,1.85,2.83,2.44,2.54,5.16,4.83,7.4,7.53,2.85,3.45,5.32,4.9,9.6,1.64,4.5-3.43,5.57,2.41,8.12,4.08,2.89,1.9.45,3.44-.91,4.83-3.34,3.4-6.89,6.6-10,10.16-2.29,2.6-3.69,2-5.85-.19-11.62-11.8-23.4-23.45-35.07-35.2-1.26-1.26-4.16-2.78-1-4.65,3-1.76,3.71-8.32,8.85-5.08,3.26,2.05,4.77,1.44,7.13-1,8.05-8.34,16.34-16.45,24.54-24.65,1.56-1.56,3.72-2.84,1.33-5.54-1.05-1.19-3.51-2.48-1.68-4.61a52.06,52.06,0,0,1,7.1-6.91c1.07-.85,2.06.88,2.88,1.68,11.95,11.76,23.81,23.62,35.83,35.3,2.38,2.32,2.27,3.81-.08,5.95-3.51,3.21-6.74,6.73-10.17,10-1.18,1.13-2.46,3.71-4.35,1.16s-7.28-4-4.77-7.33c4.77-6.28.68-9.11-3.11-12.59-.46-.42-.88-.88-1.32-1.31-6.53-6.45-11-5.73-15.61,2.2-1,1.66,0,2.21.72,3,1.26,1.37,2.71,2.57,3.91,4,1.82,2.17,6.14,4.19,5.17,6.31-1.63,3.54-5.39,6.11-8.28,9.06C658.67,192.73,658.2,192.78,656.1,193.6Z"/><path class="cls-1" d="M126.08,577.43c-3,4.2-10.93,1.8-11.2,10.3-.08,2.52-5.06,4-8.11,4.93-2.47.73-2.66-2.59-3.63-4.2-2.24-3.72-4.3-7.54-6.26-11.41-.79-1.55-3.48-3.6-.24-5,2.93-1.24,5.71-5.71,9-2.74,2.65,2.39,4.05,1.52,6.27.29,5.59-3.12,11.28-6.08,16.85-9.23,2.8-1.58,6.3-2.09,4.85-7.49-.8-3,4.61-3.81,7.27-5.47s2.89,1.23,3.84,2.62c.23.34.39.74.64,1.06,6.79,8.39,7,16.53.36,25.44-3.85,5.12-6.2,11.36-8.81,17.46,4.95-2.14,11.93-3,13.19-7.77,1.19-4.47,4-5,6.51-6.94s3.87-.87,5.1,1.64c1.73,3.52,4.12,6.75,5.54,10.38,1,2.5,5.46,5.15,1.9,7.76-2.79,2-6.41,7.12-10.9,1.36-1.36-1.74-3,.36-4.24,1-9.83,5.29-19.7,10.5-29.33,16.12-3.67,2.14-4.85,1-7-2.14-4.5-6.53-5-12.2-.17-18.92,4-5.46,6.67-11.83,9.93-17.8Z"/><path class="cls-1" d="M693,626.14c2.94,2.14,5.84,4.33,8.83,6.4.94.65,2.07,2.13,3.23,1.13,4.29-3.68,6,1.24,8.76,2.48,2.46,1.1,2.58,2.69.87,4.83-2.58,3.23-4.92,6.66-7.33,10-4.33,6-7.13,6.15-11.94.45-.39-.46-1.13-1.18-1-1.42,3.58-6.84-3.22-7.48-6.23-10.09-3.74-3.24-8-5.85-12-8.81-2.44-1.81-4.09-3.59-7.79-.87-3.31,2.44-5.75-2.47-8.49-4.15-2.56-1.57.21-3.08.86-4.58,4.86-11.1,13.27-14.29,24.87-12.06,6,1.15,12.24.74,20.26,1.12-5-3.71-8.57-6.32-12.11-9-1.39-1-2.4-1.26-4.33-.33-4.24,2-6.35-2.42-9-4.37s.83-3.42,1.68-4.9a42.06,42.06,0,0,1,6.18-8.51c1.88-1.9,2.18-7.23,6-5.11,2.92,1.62,9.38,2.48,6,9.19-1.07,2.14,1.86,2.88,3.22,3.88,9,6.61,18,13.25,27.22,19.57,3,2.07,2.54,3.38,1,6.3-4.08,8-9.94,10.34-18.62,8.77C706.7,625,700,625.3,693.38,625Z"/><path class="cls-1" d="M134.48,224.66c-2,1-2.35,4.6-4.14,7.09-1.91,2.66.68,3.18,2.1,4,10.31,5.69,20.73,11.19,31,17,2.76,1.56,4.27,1.39,5.95-1.37,4.05-6.64,7.26-.08,10.62,1.06,4.82,1.64,1,4.37.05,6.2-3.66,7.18-7.67,14.17-11.5,21.26-1,1.89-2.18,4.19-4.46,2-2.44-2.39-9.24-1.59-7-7.16,1.91-4.79,0-6-3.51-7.85-9.51-5-18.91-10.21-28.31-15.43-2.54-1.41-4.94-2.87-6.21,1.18-.91,2.91-6.33,5.87-.29,8.94,6.8,3.46,1.51,7,.14,10.42-2,5.07-4.66,1.19-6.75.21-4.11-1.93-7.93-4.47-12-6.41C97,264.25,97,262.79,98.6,260c9.25-16.61,18.42-33.27,27.32-50.07,2-3.84,3.82-4,7.07-1.79,3.09,2.05,6.48,3.63,9.75,5.41,5.62,3.06,6.25,8.64,1.1,12.56C141,228.3,138.68,224.62,134.48,224.66Z"/><path class="cls-1" d="M763.12,554.51a31,31,0,0,1-3,10.49c-3.88,8-7.67,16-11.69,23.94-.74,1.46-.71,5.05-3.83,3.25-2.73-1.58-7.8-1.33-7.45-5.73.27-3.45-1.29-4.32-3.57-5.41-5.6-2.66-11.19-5.35-16.79-8-3.15-1.49-5.71-4.2-9.52.22-2,2.3-5.69-1.78-8.6-2.94s-.69-3.16,0-4.64c4.1-8.57,8.12-17.2,12.51-25.63,5.67-10.89,13.48-13.75,24.77-8.94a176.4,176.4,0,0,1,18.27,9.17C759.5,543.3,763,547.86,763.12,554.51Z"/><path class="cls-1" d="M311,711.92c-1.21,12.44-2.35,24-3.45,35.5-.19,2-.89,3.87,1.31,5.56,3.09,2.38,2.64,9.36-.33,11.78-1.63,1.34-2.75-.12-3.87-.58q-9.17-3.77-18.17-7.93c-1.61-.75-5.12-.67-3.82-3.57s.88-7.33,5.34-8.15c1.31-.24,2.94.7,3.16-1.69.18-2-1.14-2.46-2.46-3.05a51.15,51.15,0,0,0-5.7-2.42c-1.59-.49-3.14-2.54-5-.49s.83,2.73,1.05,4c.59,3.42-1.58,6.32-3.21,9-1.74,2.84-4-.14-5.9-.76a64,64,0,0,1-10.78-4.68c-2.17-1.21-6.87-1-5.79-4.49s.66-10.13,8-7.73c1.69.55,2.62-.89,3.55-2q8.31-9.64,16.59-19.31c1-1.22,2.67-2.48.08-3.82-2-1.05-1.35-2.49-.76-4.16,2.77-7.8,2.72-7.81,10.16-4.56,4.92,2.15,9.77,4.52,14.82,6.3C310,706.14,312.32,708.2,311,711.92Z"/><path class="cls-1" d="M654.12,699.68c-4.52-.4-8.6-2.75-12-6.2-4.08-4.11-7.82-8.57-12-12.54-2.7-2.55-4-8-10.24-4.42-1.82,1-4.82-3.83-6.81-6.35-1.78-2.26,1.12-3.07,2.25-4.17,4.31-4.17,8.74-8.2,13.2-12.22,1.36-1.22,2.89-4.15,4.79-1.18,1.68,2.63,7.36,3.76,4.59,8-2.14,3.3-.72,4.73,1.15,6.73q6.36,6.79,12.67,13.63c3.54,3.82,7,3.58,10.73.13s4.2-6.94.77-10.73q-6.86-7.59-13.87-15c-.76-.81-1.49-2.44-2.91-1.72-5.79,2.93-6.46-3.12-9.23-5.28-2.05-1.6.15-2.9,1.22-3.92,3.6-3.42,7.23-6.81,11-10,1.31-1.12,2.58-4.4,4.78-1.66,2,2.48,6.76,4.14,5,8.06-1.4,3.08.2,4,1.62,5.57,4.86,5.36,9.93,10.54,14.56,16.1,7.57,9.1,7.12,16.77-1,25.27C666.65,695.68,660,699.74,654.12,699.68Z"/><path class="cls-1" d="M457.21,766.7c1.46-7.63,2.85-15.27,4.44-22.88.4-1.94.5-3.3-1.88-3.42s-2.72-1.71-3-3.77c-1-7.86-1.05-7.79,6.74-8.18,4.75-.24,9.48-.8,14.23-1,1.7-.05,4.9-1.61,4.64,1.91-.23,3.15,3.28,7.51-1.39,9.33-3.29,1.28-3.64,3.52-4.25,6-2.71,11.24-5.46,22.48-8,33.77-.73,3.24-1.78,5-5.59,4.93-5.76-.09-12.81,3.17-16.93.19-4-2.87-4.92-10-7-15.33-2.43-6.15-4.5-12.44-7.07-18.53-1.32-3.11-1.32-6.87-6.35-8.1-2.83-.69-1.61-5.88-1.6-9,0-3,2.81-1.71,4.36-1.85q9.27-.84,18.57-1.22c1.54-.06,4.33-1.29,4.25,1.81s3,7.34-1.21,9.23c-2.9,1.29-2.63,2.3-1.85,4.5,2.54,7.17,5,14.38,7.42,21.57Z"/><path class="cls-1" d="M505.64,778c-1.71.14-2-1.38-2.13-2.83-.29-2.79-3.76-6.16-.44-8.17,3.12-1.89,2.53-3.46,1.8-5.93-1.92-6.53-3.65-13.12-5.55-19.66-.82-2.81-.91-5.57-5.63-5.67-3.8-.08-2.94-5.21-3.88-8.15s1.79-2.7,3.44-3.18c12.1-3.48,24.09-7.44,36.35-10.2,8.42-1.89,4.46,6.81,6.87,10.21,1.23,1.73,4.23,6.2-1.74,7.4-3.09.62-5.38,1.79-8.41-1.81-3.19-3.78-7.92.6-11.8,1.6-2.5.65-.43,3.52-.09,5.42.81,4.52,3.53,1.7,5.65,1.6s5-2.84,6.25-.7a21.9,21.9,0,0,1,3,10.53c0,2.28-3.56,2.09-5.65,2.6-3.15.77-5.09,1.74-3.91,5.8,1.12,3.88,3.3,3.53,5.93,2.46,3.78-1.55,9.24-.68,9.17-7.69,0-2.5,4.49-2.24,7-2.92,2.8-.77,2.44,2,3,3.65,4.28,13.43,4.27,13.41-9,17.13-8.34,2.34-16.66,4.77-25,7.15C509.19,777.11,507.58,777.5,505.64,778Z"/><path class="cls-1" d="M614,688.21c0,2.59-7,6-9.31,4.87-3.18-1.6-12.65,1.16-13.44,4.36-.66,2.68,2.06,4.6,3.27,6.85s2.71.77,4,0c2.13-1.28,4.27-2.55,6.27-4,2.59-1.89,4.25-2.1,6.27,1.15,4.68,7.52,4.89,7.39-2.61,12.09a25.45,25.45,0,0,0-4.64,3c-1.7,1.69.45,2.91,1.1,4.24,1.38,2.83,3.33,1.6,5.14.5,5.68-3.45,5.49,2.65,7.66,4.78,2.79,2.74.58,4.14-1.7,5.54-5.81,3.56-11.54,7.28-17.4,10.77-1.27.76-3,3.52-4.39.51s-6.42-5.13-3.22-9.21c1.71-2.18,1.38-3.31.14-5.22-3.83-5.89-7.51-11.88-11.26-17.82-1.58-2.51-2.31-5-6.91-3.75-3.78,1-4.45-4.5-6.29-7.19s1.45-2.89,2.68-3.69c10.6-6.82,21.41-13.33,31.92-20.3,3.23-2.14,4.44-1.2,6,1.64C609.37,681.15,611.82,684.74,614,688.21Z"/><path class="cls-1" d="M372,744.09c-2-.9-7.36.37-6-6.19.52-2.54-2.55-2.1-4.12-2.71-2.1-.82-2.26.8-2.61,2.28-1.9,8-3.87,16-5.79,24-.28,1.17-.75,2.59.9,3.12,7.28,2.34,2.09,7.08,1.84,10.63-.18,2.7-2.78,1.64-4.51,1.23q-9-2.14-18-4.39c-1.82-.45-5.07-.15-3.74-3.28,1.21-2.84-.92-8,4.24-8.24,3.09-.14,3.78-1.26,4.34-3.81,1.63-7.45,3.42-14.87,5.31-22.26.52-2.05.85-3.4-1.82-4.11-2.26-.6-4-1-4.92,1.77-2.14,6-6.14,1.83-9.22,1.39-4.37-.62-1.85-3.86-1.42-5.79,2.94-13.26,3-13.24,15.91-10.15,11.43,2.74,22.84,5.61,34.31,8.16,3.14.7,4.24,1.59,3.07,4.92a73.66,73.66,0,0,0-2.6,10.81C376.66,744,375.85,745.43,372,744.09Z"/><path class="cls-1" d="M191.79,699.33c-.66-.55-1.46-1.19-2.23-1.87q-7.4-6.62-14.78-13.27c-1.26-1.13-3.8-2.19-1.28-4.16s3.15-7.57,7.6-5.47c3.11,1.47,4.2.69,6-1.4,4.72-5.5,9.68-10.78,14.41-16.26,1-1.16,3.72-2.17,1.45-4.44-1.56-1.56-3-3.57-5.68-1.3-5.15,4.41-6.69-1.78-9.23-3.71-3-2.31.81-3.77,2-5.15,9-10.36,9-10.28,19.27-1,8.6,7.77,17.18,15.56,25.95,23.13,2.52,2.18,2.69,3.66.25,5.85-1.84,1.65-3.23,3.8-5.09,5.43s-2.85,6.35-6,4.12c-2.73-1.9-9.08-3.53-4.52-9.62,1.59-2.13-.82-3.24-2.07-4.46-1.92-1.87-2.89,0-3.94,1.14-5.27,5.84-10.46,11.75-15.79,17.53-1.54,1.66-1.72,2.8-.27,4.74C199.36,691.27,194.54,699.41,191.79,699.33Z"/><path class="cls-4" d="M100.82,480c-.11-19.45,6.38-30.08,19.9-36,3.65-1.6,5.9-1.26,8,2.39,6,10.43,7.11,21,1.41,31.81-5.19,9.84-13,17.5-21.26,24.72-3,2.6-3.91,1.44-4.69-1.86C102.33,493.25,100.94,485.37,100.82,480Z"/><path class="cls-5" d="M754.58,477.24a113.31,113.31,0,0,1-3.6,24.44c-.47,1.87-.8,4.27-3.39,2C736.26,494,725.17,484,721.91,468.4c-1.81-8.68,1.26-16.19,5.68-23.41,1.58-2.58,3.35-2.19,5.76-1.34C747.2,448.54,754.71,460.31,754.58,477.24Z"/><path class="cls-1" d="M384.93,776.08c.45-1.26-1.4-5.83,4.39-5.81,1.67,0,1.18-2.31,1.32-3.68.71-7,1.45-14,2.08-20.93.27-3,.92-5.51-3.27-7.28-3.5-1.48-.95-5.83-.84-8.89.1-2.91,2.41-2.21,4.17-2.07,6.17.51,12.33,1,18.48,1.71,1.58.18,4.39-.37,3.8,2.59-.62,3.12,1.49,7.93-3,8.92-3.61.81-3.49,2.8-3.73,5.17-.61,6.16-1.29,12.31-1.66,18.49-.2,3.31-1.79,6.77,3.51,8.89,3,1.22.35,6,.14,9.14s-2.8,1.6-4.4,1.48c-6-.46-11.9-1.34-17.87-1.58C384.68,782.09,383.78,780.74,384.93,776.08Z"/><path class="cls-1" d="M222.95,708.36c3.64,2.64,4.59,0,5.79-1.82,3.76-5.69,7.46-11.42,11.17-17.16,1.6-2.48,3.56-4.22.46-7.85-2.59-3,2.33-5.82,3.85-8.69s3.16,0,4.47.77c4.76,2.9,9.52,5.85,14,9.11,1.51,1.09,5.55,1.66,3.59,4.36s-1.6,9.21-8,6.83c-2.6-1-3.23,1.08-4.2,2.55-3.52,5.36-7,10.71-10.46,16.14-1.78,2.83-5.11,5-1.13,9.37,2.13,2.35-2.41,5.5-4,8.18-1.5,2.5-3.27.23-4.66-.65q-7.34-4.64-14.52-9.52c-1.5-1-4.58-1.69-2.57-4.44C218.61,713,219.25,709,222.95,708.36Z"/><path class="cls-1" d="M139.6,536.3c.65,2.64-1.78,2.78-3,3-2.7.43-5.68,4.51-8.08.6-1.77-2.89-3.34-2.21-5.53-1.39-6,2.24-12.06,4.32-18,6.71-3,1.21-7.3.72-6.46,6.85.38,2.81-5.22,3-8.16,4.14s-2.64-1.89-3.18-3.24C85,547.39,82.93,541.76,81,536.09c-.49-1.43-2.67-3.78.47-4.49s6.41-5,9.31-1.6c2.53,2.92,4.29,2.08,6.85,1.09,5.59-2.15,11.23-4.16,16.87-6.2,3.33-1.21,6.87-1.32,6.66-6.94-.11-3.15,5.2-3.08,8.11-4.22s2.72,1.94,3.29,3.41C135,523.48,137.28,529.91,139.6,536.3Z"/><path class="cls-1" d="M170.29,615.64c-1.49-2.18-2.12-4,.51-6.28,6-5.12,5.83-5.29,10.76.8,2.86,3.53,5.86,7,8.51,10.65,1.2,1.67,5.15,3.42,1.74,5.83-2.65,1.87-4.49,7.7-9.43,3.51-1.94-1.65-2.94-.18-4.14.79q-9.15,7.41-18.25,14.89c-1,.85-3,1.64-2,3.33,3.84,6.48-3.23,6.73-5.5,9.55-1.65,2.06-2.69-.49-3.61-1.59-4-4.77-7.9-9.55-11.73-14.42-1-1.23-3.66-2.78-1.08-4.38,2.74-1.69,4.58-6.84,8.29-4.58,3.33,2,4.66.72,6.76-1,5.4-4.49,10.91-8.85,16.32-13.33C168.64,618.4,170.47,617.81,170.29,615.64Z"/><path class="cls-3" d="M457.57,176.86a237.72,237.72,0,0,1,48.91,11.42c-7.85,7.43-11.7,16.66-13.25,26.84-2.87,18.82-.85,37.08,7.15,54.5a44.86,44.86,0,0,0,3.11,5.35c2,3.07,4.69,4.15,7.88,2.11s2.74-4.77,1-7.56c-8.51-13.73-10.64-29-10-44.68.4-9.82,2.74-19.28,9.38-27,1.73-2,1.83-4.36,1.88-7.1l14.93,6c-.11,3.47-3.25,3.9-5.38,5.31-5.63,3.71-10.55,8-12.59,14.77-1.11,3.7-.64,5.52,3.94,4.69,8.76-1.58,15.14-6.28,19.61-13.82,1.25-2.11,1.89-4.66,4.37-5.85l17.3,9.71c1.55,2.68.09,5.24-.38,7.81-1.8,9.84.8,18.43,7.37,25.83,1.44,1.63,3,4.25,5.39,3.47s2.28-3.74,2.75-5.89a27.71,27.71,0,0,0-.27-12.9c-.51-2-1.4-3.92-.85-6.06.42-.93,1-1.65,2.17-1.28a154.54,154.54,0,0,1,20.17,16.35c1.33,3.31-.2,6.46-.57,9.67a29.75,29.75,0,0,0,5.16,20.38c1.48,2.24,2.54,2.12,4.1.15A23.38,23.38,0,0,0,605.1,261c.62-2.13.84-4.49,2.92-5.91,5.85,5,10.37,11.1,14.76,17.33-.62,3.1-3.32,4.64-5.14,6.83-7.26,8.73-8.52,18.51-5.3,29.16,1.08,3.56,2.62,3.63,5.12,1.22,6.68-6.44,9.51-14.35,9.3-23.5-.05-2.3-1.33-5,2-6.3L644.19,305c.76,4.34-3.07,4.27-5.4,5.36-13.42,6.27-22.74,16.11-26.75,30.54-1.74,6.24-.55,7.53,5.78,6.73,12-1.53,22.59-6.09,30.83-15.34,1.72-1.93,3.2-4.45,6.42-4.16,4.65,11.38,8.79,22.92,11.21,35-3,.95-5.07-1.24-7.33-2.49-11.27-6.26-23-7.71-35.23-3.37-5.05,1.79-5.64,3.35-2.09,7.47,10.72,12.43,24.37,17.1,40.54,14.78,2.54-.36,5.09-2.13,7.7-.19l1.76,11.4c1.56,5.36-2.16,7.15-5.92,9.27-12.16,6.86-19.88,17.09-22.31,31-1.35,7.72-.35,8.55,7.06,6.55,6.07-1.64,11.32-4.81,16.3-8.58,2-1.55,3.67-4.08,6.81-3.7l-1.34,20.88c-1.7,2-3.83.7-5.76.71a28.68,28.68,0,0,0-19.27,6.9c-3.58,3.09-3.23,4.54,1.14,6.55,5.05,2.32,10.4,1.95,15.74,1.81,2-.05,4.06-1.14,5.88.52A133.13,133.13,0,0,1,665.06,485c-2.39,1.57-4.41,0-6.38-.91-7.05-3.24-14.07-2.83-21.11-.11-4.69,1.81-4.93,2.93-1.34,6.29,5.22,4.9,11.72,6.78,18.57,7.88,2.1.34,4.77-.3,5.7,2.65l-6.58,16.56c-2.84.5-3.85-1.87-5.4-3.43-14.13-14.22-30.88-20.2-50.79-16-6.08,1.28-6.74,2.64-3.5,7.95,10.64,17.39,26.73,25.08,46.66,25.79,2,.07,4.58-1.74,5.77,1.51-4.36,9.21-9.83,17.78-15.34,26.32-3.13-.64-3-3.56-3.88-5.7a29.24,29.24,0,0,0-13.37-14.86c-4.65-2.64-5.75-1.91-5.82,3.27a27.19,27.19,0,0,0,10.17,22.23c2,1.69,4.57,3,5,6-8.59,10.65-16.9,21.56-27.8,30.07-2-1.7-1.38-4.18-1.86-6.32-2.48-11.07-8.64-19-19.58-22.76-4.58-1.56-5.8-.45-4.92,4.22,1.91,10.17,7.19,17.79,16.85,22.15,2.77,1.25,6.08,1.45,8.2,4-10.69,12-14.28,13.85-31.43,7.79-11.59-4.09-19.59-12.86-25.42-23.5-1.8-3.29-3.46-6.75-7.86-4.59-4.65,2.29-3.2,6.08-1.31,9.56,8.71,16.07,21.63,26.84,40.7,31.5-7.28,5.88-14.73,10-22.1,14.25-3.06-.67-2.42-3.49-3.07-5.47q-5.59-17.14-23.17-20.87c-4.51-1-5.43,0-4.2,4.36,3,10.36,9.76,16.94,20,20.26,2.55.83,6,.21,7.18,3.77a263.7,263.7,0,0,1-68,24.5c-5.07,1.05-6.94.75-7.19-5.33-1.11-26.67-2.23-53.34-2.36-80,0-2.87,0-5,3.72-5.7,23-4,41.72-16.4,59-31.19a229.15,229.15,0,0,0,41.36-46.9c2-2.91,3.8-4,7.51-3.61a87.06,87.06,0,0,0,22.9-.37c23.1-3.52,33.44-20.43,37.32-40.79.58-3.05.06-6-3.65-6.78s-5.74,1.41-6.45,5c-.28,1.42-.69,2.81-1.06,4.21-6.16,23-23,33.11-47.23,27.92,6.85-12.58,13.17-25.25,17.82-38.68,8.95-25.82,12.73-52.16,8.17-79.35a16.41,16.41,0,0,0-1.73-5.88c-1.32-2.12-3.74-2.61-6.07-1.55-2.89,1.32-3.49,3.73-2.88,6.73a125.83,125.83,0,0,1,.73,44.48c-5.45,35.42-21.11,66.29-42.41,94.64-1.84,2.45-3.09,1.81-4.92.25-8.45-7.19-11.11-16.61-10.53-27.25a88.76,88.76,0,0,1,6.71-28.23c1.45-3.61,2.06-7.17-2.33-8.84s-6.22,1.56-7.5,5.13c-5,13.92-9.11,28-6.67,43a38.2,38.2,0,0,0,13.3,23.86c1.52,1.28,3.61,2.28,1.28,4.82-19.49,21.29-40.7,40.11-69.36,48.16-7,2-7.06,1.82-7-5.57.11-20.5.16-41,.5-61.5.06-3.51-2.16-8.43,4.22-9.73,1.39-.28.58-3,.57-4.6,0-2.06-1.6-2-3.1-2-1.86,0-3.53.2-3.86-2.64-1.83-15.75-1.9-31.08,5.42-45.9C480,408.49,496.28,398,518.94,396.88c2.71-.13,5.51.12,6.76-3.12,1.46-3.81-1-7-5.92-7-10.71-.05-21.06,2-30.44,7.24-4.18,2.31-5.56,1-7.14-2.69-7-16.35-7.67-32.07,4.25-46.63,2.43-3,3.4-6.06.14-8.66s-6.18-.64-8.45,2.19c-13.63,17-14.61,35.9-6.23,54.86,3.44,7.78,2.33,11.79-2.73,17.73-10.47,12.3-14.78,27.46-16.86,43.41-2.42-1.37-2.48-3.91-3.19-5.91-5.89-16.53-11.85-33.1-18.56-49.24-4.08-9.82-2.48-20-6.66-29.7C422,397.54,409.53,422.6,401.26,449c-1.59-16.35-2.67-32.56-7-48.32a107.19,107.19,0,0,0-12.43-27.56c-6.23-10.17-8.28-22-10-33.6-5.5-36.93,9.87-63.78,40.64-83,3.72-2.32,9.59-4.25,5.86-10-3.46-5.34-7.74-1-11.23,1.12-24.5,15.2-41.76,35.59-45.89,65.14-2,14.53-.29,28.85,3.39,43.85-7.14-3.2-13.49-6.38-20.5-7.6-1.63-.28-3.24-.69-4.87-.91-3.29-.44-5.93.52-6.4,4.15-.44,3.41,1.34,5.35,4.79,6a65.2,65.2,0,0,1,14.85,4.3c19.29,8.52,28.13,25,32.58,44.19,4.31,18.58,7.24,37.39,1.23,56.3-1.22,3.84-.52,7.82-.57,11.74,0,2.44-.5,4-3.41,3.75-1.75-.17-3.44,0-3.23,2.46.16,1.89-.85,4.54,2.5,4.56,2.85,0,2.66,1.89,2.66,3.79,0,18.43,0,36.85,0,56.25A76.4,76.4,0,0,1,355.66,525c-16.32-18.64-20.09-39.32-9.22-62.07,1.64-3.44,2.8-7-1.62-8.92-4.17-1.78-6.29,1.14-8,4.66-5,10.37-7,21.38-7.08,33.93a110.47,110.47,0,0,1-27.87-37.12c-17.78-37.71-17.79-76.75-8.2-116.43a36.24,36.24,0,0,0,1-3.58c.4-3-.37-5.49-3.63-6.24s-5.48.68-6.43,4.07a215.35,215.35,0,0,0-6,29.77,135.67,135.67,0,0,0-1.4,25.39c.27,4.72-1.93,5.57-5.83,5.71-16.39.58-28.39-7.35-38.27-19.46a42.5,42.5,0,0,1-3.46-5.15c-1.91-3.2-4.32-5.39-8-3s-2.64,5.52-.79,8.65A59.21,59.21,0,0,0,229.88,387c12,12,26.07,19,43.4,17.18,6.3-.65,4.7,3.9,5.06,6.78,3.34,26.58,12.1,51,28.47,72.44a91,91,0,0,0,12,13.38c2.59,2.27,2.37,3.4-1.05,4.24-15,3.67-28.72-2.52-33.06-14.74-1.25-3.51-3.86-5-7.31-3.66-3.8,1.53-3.29,4.85-2.23,7.94,5.25,15.34,23.65,24.69,41.85,21.14a49.65,49.65,0,0,0,11.22-3.44c3.43-1.58,5-.33,6.25,2.53,9.18,21.27,25.31,35.43,46.1,44.62,3.16,1.4,3.74,3.09,3.66,6.06-.78,32.68-1.8,65.36-3.77,98-.15,2.51-.11,4.25-3.77,3.47-34.21-7.34-65.66-20.79-93.79-41.75-.13-.09-.11-.39-.21-.82,6-1.4,12.16-2.21,17.92-4.66a48.7,48.7,0,0,0,25.05-23c1.67-3.22,2.5-6.52-1.3-8.63s-5.95.14-7.86,3.45c-9.72,16.89-27.44,25-46.84,21.85-4.73-.78-7.22-4.28-9.9-7.63,2.19-2,4.67-.77,7.08-.69,11.66.36,20.91-4.19,27.3-14,2.78-4.27,1.85-5.84-3.35-6-11.58-.47-20.32,4.54-26.44,14.23-1.43,2.26-2.38,4.83-4.54,6.58-7.93-6.08-14.47-13.5-20.77-21.18,1.66-1.82,3.74-1.28,5.79-1.08,11.75,1.17,21.88-2.84,31.17-9.67,3.83-2.82,2.68-4.83-.74-6.9-14.14-8.57-28.52-8.47-43.19-1.5-2.12,1-4,3.29-6.78,1.83-3.4-5.36-7.43-10.32-10-16.2,1.42-2.05,3.86-2.19,5.87-3.13,9.18-4.28,15.08-11.26,17.13-21.22,1-4.78-.2-5.84-4.8-4.37-8.39,2.67-14.9,7.68-18.79,15.8-1,2.09-1.1,5-4.27,5.45a299.06,299.06,0,0,1-15.79-35.13c2.53-4,5.5-1.21,8.18-.4,21,6.38,39.63,2.75,55.35-13,5.2-5.22,4.83-6.8-1.76-9.54-21.36-8.86-40.39-4.62-57.59,10.17-2.12,1.82-3.64,4.68-7.06,4.46-2.85-10.25-5.87-20.46-7.49-31,2.7-1,4.77.71,6.92,1.72,8.26,3.88,16.42,3.09,24.5-.42,2-.87,4.74-1.64,4.66-4.33-.07-2.52-2.65-3.55-4.62-4.52-8.4-4.12-17-4.55-25.64-.74-2.2,1-4.26,2.67-7,1.8a214.83,214.83,0,0,1-2.5-27c2.55-1,4.39.67,6.25,1.88,3.86,2.51,5.88,1,6.37-3,1.32-10.8.45-21.25-7.15-29.82-3.33-3.76-4.71-7.63-3.56-12.45,2-13.29,4.45-26.49,8.93-39.22,2.87.34,2.61,2.85,3.1,4.69a38.88,38.88,0,0,0,7,14.36c3.23,4.08,4.24,4,7.23-.37,8.32-12.18,7.83-30.28-1.11-43.28-1.38-2-3.47-3.61-3.81-6.27,4.6-13.57,12.78-25.16,20.47-37,1.45-2.24,3-4.38,4.57-6.57,2,.22,2.35,1.79,2.17,3.18-.71,5.41,2.37,5,6.09,4.42,16.16-2.43,26.59-11.58,31.79-26.87,1.85-5.45.76-6.66-5-6-3.1.34-6,1.45-9.07,2.09-1.79.38-4.09,1.94-5.16-1.2,13.53-13.41,27.89-25.78,44.33-36,1.2,4.66,4,5.78,8.62,5.67,14.33-.35,25,7.56,34.49,17.06,7.21,7.19,13.24,15.35,16.62,25.1,1.27,3.65,3.56,5.27,7,4.1,4-1.38,4.16-4.68,2.58-8.14-11.4-24.86-28-43.69-56.59-48.42-.95-.16-1.87-.46-3.57-.89,12.72-7.91,25.72-13.51,39-18.59,3.07.62,3.23,3.47,4.22,5.62C352.57,209,363,216.48,377.5,218.25c5.27.64,6.42-.83,4.5-6a38.71,38.71,0,0,0-19.26-21.77c-2.57-1.32-6.26-1.31-7.27-5,30.07-9.19,60.84-11.79,92.1-9.81-.23,3-3,3.13-4.82,4.18-6.13,3.49-10.94,8.19-13.54,14.84-1.57,4-.44,5.62,3.83,5.07,9.94-1.26,16.41-7.26,20.63-16C454.83,181.36,455.11,178.5,457.57,176.86Z"/><path class="cls-4" d="M191.8,496.13c4-3.53,7.74-7.49,12.12-10.5,18.13-12.45,37.16-13.41,57-3.95,4.78,2.29,4.14,4.29,1.27,7.73a54.77,54.77,0,0,1-60.85,15.93c-2-.74-4.06-3.57-6.62-.86Z"/><path class="cls-4" d="M646.65,533.13c-8.8-.35-17.61-.25-26.07-3.47a55,55,0,0,1-29.61-26c-2.07-3.78-1.3-5.16,2.69-6.39a54.3,54.3,0,0,1,57.21,17,41.74,41.74,0,0,0,3,3Z"/><path class="cls-4" d="M655.07,328.07c-5.47,5.23-10.24,11.23-17.12,14.88a56,56,0,0,1-23.66,6.31c-4.67.25-5.75-1.47-4.67-5.83,4.1-16.56,13.9-28.16,29.52-35,1.87-.81,4.8-.33,5-3.53Z"/><path class="cls-4" d="M669.87,379.29c-21.37,5.65-39.76-.07-51.06-15.32-3.3-4.45-2.19-6,2.4-7.76,16.37-6.18,31.16-2.72,45.06,6.87Z"/><path class="cls-5" d="M225.31,563.29c6.68-3.08,13-6.85,20.56-7.94,11.87-1.71,22.34,1.17,32.29,7.51,4.3,2.74,3.36,4.4.14,7.17-11.44,9.85-24.67,12.59-39.25,10.58Z"/><path class="cls-4" d="M673.56,425.2c-7.44,6.63-15.3,12.54-25.37,14.62-6.53,1.35-7.24,1-6.62-5.57,1.61-17,10.16-29.34,25.46-36.82,3.11-1.52,5.27-3,4.6-6.75C672.76,402.16,674.17,413.63,673.56,425.2Z"/><path class="cls-5" d="M249.77,250.14c3.44,2.17,5.94-1.21,9-1.65,4.3-.62,10.05-2.94,12.42-.21,2.83,3.25-.6,8.51-2.47,12.51-7,14.91-19.14,22.16-35.24,23.45-3.55.28-5.06-.9-3.88-4.71.48-1.55,1.69-3.57-.57-5Z"/><path class="cls-5" d="M204,318.14c14.65,13.22,16.59,37.84,4.44,53.46-2.45,3.15-3.8,2.48-6.06,0-5.83-6.5-8.53-14.41-10.82-22.55C194.67,338.31,198,327.7,204,318.14Z"/><path class="cls-5" d="M355.47,185.46c5.31,3,11.38,4.54,16.11,8.73a42.75,42.75,0,0,1,12.59,19.46c1.6,5,.17,6.82-5,6.31-16.43-1.61-28.22-9.54-34.57-25-.7-1.7-.92-3.61-2.36-4.94Z"/><path class="cls-6" d="M543.56,638.84c-1.64-2-4.2-1.41-6.29-2-12.11-3.23-19.42-10.92-22.81-22.9-1.56-5.5.63-6,5.16-5.3,13.43,2,23.36,11.31,26.16,24.65.25,1.18.71,2.31,1.06,3.46Z"/><path class="cls-6" d="M628.73,279.79c-2.22,4.07.26,8.32-.59,12.61a34.16,34.16,0,0,1-10,18.74c-3.34,3.21-5.31,3.41-7.18-1.53-5.08-13.41-1-26.8,11.85-37.23C624.74,274.87,627.45,276.76,628.73,279.79Z"/><path class="cls-6" d="M594.27,601.78c-15.33-2.87-25.37-13.26-26.85-27.56-.48-4.61.55-6.36,5.69-5,13.49,3.63,22.11,15.31,22.46,31.24Z"/><path class="cls-2" d="M449.88,524.61c0,3.72-.42,7.49.09,11.14.9,6.32-1.4,8.1-7.66,7.75-4.52-.25-6.07-1.11-5.83-5.86.42-8.24.06-16.51.15-24.77a29.78,29.78,0,0,1,.77-6.73c.82-3.34,3-5.46,6.64-5.23,3.5.22,5.26,2.75,5.44,5.77.34,6,.1,12,.1,17.93Z"/><path class="cls-6" d="M183.17,458.64c8.63-5,17.61-7.89,27.67-4.8a33.71,33.71,0,0,1,10.86,5.65c2.84,2.2,2.43,3.68-.32,5.53-9.59,6.45-19.69,7.82-30.43,3.36-2.27-.94-4.43-2.16-6.63-3.25Z"/><path class="cls-7" d="M210.46,539.62c3.41-7.54,6.94-15,14.66-19.21,4.66-2.53,10.8-6.89,14.58-3.36,3,2.83-.27,9.69-2.72,14.23-4.68,8.65-11.84,14.1-21.66,15.81Z"/><path class="cls-6" d="M570.44,224c3.07,7.73,3.68,15.51,1,23.55-1.34,4-2.93,4.9-6.37,2-9.66-8.18-13.5-18.41-11.17-30.86.45-2.41,1.26-4.76,1.9-7.14l12.29,8A7,7,0,0,1,570.44,224Z"/><path class="cls-6" d="M623.38,570.4c-3.1-2.68-6.46-5.11-9.25-8.07-6.31-6.72-8.24-14.92-7.59-24,.24-3.32,1.44-3.72,4.26-2.66,8.82,3.32,14.79,9.45,18.28,18.11.75,1.87,1.49,3.75,2.23,5.63Z"/><path class="cls-3" d="M414.23,524.09c0,5.17-.12,10.34,0,15.5.18,6.21-4.45,3.24-7,3.58s-5.87,1.47-5.72-3.64c.31-10.32,0-20.66.13-31,0-4.17,1.87-7.45,6.44-7.54,4.88-.09,6.07,3.52,6.13,7.61C414.28,513.75,414.23,518.92,414.23,524.09Z"/><path class="cls-3" d="M419,523.48c0-5-.1-9.92,0-14.88.1-4.15,1.81-7.47,6.39-7.62,4.9-.16,6.16,3.45,6.19,7.53.08,10.33-.15,20.67.11,31,.14,5.68-3.84,3.69-6.36,3.65s-6.67,2.2-6.4-3.56C419.2,534.23,419,528.85,419,523.48Z"/><path class="cls-4" d="M182.58,388.22c-.52,3.94,1,6.81,3.67,9.87,8.88,10.26,11,22.26,8.07,35.41-1,4.41-2.76,5-6.3,2.69-2.41-1.59-4.9-3.05-7.35-4.58A226.77,226.77,0,0,1,182.58,388.22Z"/><path class="cls-6" d="M660.49,500.75c-1.46-2.19-3.73-1.29-5.69-1.41a32.72,32.72,0,0,1-21.11-9.21c-4-3.78-2.58-5.36,1.6-7.2,10.35-4.58,20.13-2.76,29.78,2Z"/><path class="cls-6" d="M457.57,176.86c-2.76,11.35-8.61,20-20.34,23.7-3.39,1.06-7.79,2.59-10,.27-2.54-2.63.4-6.54,1.81-9.63,3.71-8.08,11-12,18.55-15.57Z"/><path class="cls-7" d="M538.53,201.82c-4.33,12-12.27,19.7-25.38,21.46-4.77.64-5.92-1-4.59-5.37A29.16,29.16,0,0,1,523,200.22c1.9-1,4.57-1,5.55-3.5Z"/><path class="cls-6" d="M670,462.55c-8.63,2-17,2.2-25.21-2.11-3.56-1.88-4-3.42-1-6.26,8.15-7.55,17.59-10.25,28.46-8.11Z"/><path class="cls-6" d="M608,255a32.34,32.34,0,0,1-5,13.83c-3.71,5.46-4.34,5.46-7.94.18-6.52-9.54-6.24-19.72-2.94-30.2C597.72,244,603.36,249.05,608,255Z"/><path class="cls-8" d="M570.44,224a7.82,7.82,0,0,1-2.32-4.41c1.45.77,3.06,1.33,3.88,2.93Z"/><path class="cls-9" d="M508.56,94.84c-3.57-2.75-12.35,1.49-12.95-5.77-.36-4.32-1.35-14.44,5.66-14.11,12.59.6,17.81,2.61,17.31,10.22C518.13,92.19,515.31,95.25,508.56,94.84Z"/><path class="cls-9" d="M743.3,568.3c-1.51-.7-2.65-1.2-3.76-1.74-5.21-2.5-10.5-4.85-15.57-7.6-2.56-1.39-7.51-1.32-4.42-7,3.88-7.19,5.55-8.61,11-6.13,4.89,2.21,9.73,4.55,14.43,7.14,3,1.68,4.45,4.53,2.73,7.87C746.43,563.39,746,566.64,743.3,568.3Z"/><path class="cls-10" d="M294.81,715.31c-.16,5.27.65,9.28-1.84,12.43-.44.56-3.92-1.29-6.62-2.25Z"/><path class="cls-4" d="M545,282.16c7.49-.22,7.52-.22,5.9,7.43-4.88,23-24.59,43.53-54.9,44.36-3.33.09-5.27-.68-4.52-5C495.9,302.82,518.48,282.95,545,282.16Z"/><path class="cls-4" d="M319.53,285.31c0-13.82,3-23.7,8.65-32.93,1.91-3.14,3.25-3.26,6.06-.89,20.26,17.1,24.93,49.37,10.39,71.59-2.13,3.26-3.49,3.73-6.47,1C326,312.74,319.78,298.9,319.53,285.31Z"/><path class="cls-4" d="M257.15,331.12c-.61,14.28-4.9,26.07-13.38,36.35-2.37,2.87-3.76,2.57-6.1-.08-17.51-19.79-17.88-51.42-1-72,3.06-3.73,4.76-3.08,7.42.16A57.22,57.22,0,0,1,257.15,331.12Z"/><path class="cls-4" d="M433.85,287.45c-1.68,25.73-27.66,49.6-53.24,49.34-2.73,0-4.65,0-4.45-3.9,1.29-25.54,27.54-49.95,53.27-49.45C432.68,283.51,434.79,283.93,433.85,287.45Z"/><path class="cls-4" d="M350.93,554.88A61,61,0,0,1,372,558.82c2.86,1.09,3.37,2.44,1.82,5-8.79,14.79-21.69,23.54-38.57,26.52-2.34.41-3.93.08-4.09-3-.26-4.78-3.15-7.55-7.76-8.33s-8.33,1.22-10.1,5.44c-1.94,4.63-4.8,3.86-7.9,2-4.14-2.49-.28-4.78.81-6.46C316.9,563.53,332.39,555.44,350.93,554.88Z"/><path class="cls-5" d="M364.13,408.7c-.46,11.74-4.12,22.22-11.75,31.33-2.52,3-3.9,2.49-6.12-.23-13.81-17-13.25-43.86,1.21-60.16,2.62-3,4.2-2.95,6.59.25A51,51,0,0,1,364.13,408.7Z"/><path class="cls-5" d="M599.23,546.47a50.67,50.67,0,0,1-3.41,18.38c-1.14,3-2.29,3.78-5.38,2-17.84-10.21-26.23-36.89-17.57-55.54,1.86-4,3.65-2.8,6.07-1.15C592.27,519.24,598.52,532.1,599.23,546.47Z"/><path class="cls-5" d="M506.86,629.84c-.49,5.75.14,14.59-4.31,16.31-5.14,2-10.71-4.75-14.82-9.26-11.31-12.42-14-27-10.33-43.2,1.27-5.64,3.5-5.77,7.85-2.91C499.29,600,506.27,613,506.86,629.84Z"/><path class="cls-4" d="M345.41,631.24c.52-17,7.89-29.94,22.5-38.83,3.57-2.17,5.1-1.54,6.38,2.5,6.26,19.7-2.41,42.17-20.23,52.61-4.09,2.4-5.79,1.55-6.9-2.74A45.28,45.28,0,0,1,345.41,631.24Z"/><path class="cls-5" d="M537.9,390.27c19.87,1,39.46,22.86,38.81,42.82-.09,2.91-1.29,3.36-3.79,3.3-19.65-.53-40.15-23.58-38.59-43.23C534.57,390.13,535.72,389.7,537.9,390.27Z"/><path class="cls-4" d="M313,300.2c-.77,5.54.34,13.59-4.09,15.5s-9.82-4-13.68-7.94c-12.3-12.51-16.18-27.4-11.75-44.46.94-3.62,2.16-4.67,5.83-2.59C304.71,269.45,312.1,282.83,313,300.2Z"/><path class="cls-4" d="M576.65,306.47c-.18-6.55,1.46-12.65,3.94-18.66,1.5-3.65,3-4.09,6.29-1.73,16.57,11.78,22.74,37,13.5,55-1.82,3.56-3.34,3.22-5.95,1.17C582.81,333.14,576.8,321.27,576.65,306.47Z"/><path class="cls-5" d="M251.38,541.69c1.33-14.22,8.8-26.8,23.17-35.15,2.86-1.66,5.23-2.2,7.49.77a8.84,8.84,0,0,0,2,1.49c8.41,6.09,8.78,7.06,3.92,16.56-6.36,12.45-16.26,20.7-30,24.07C251.28,551.08,251,550.76,251.38,541.69Z"/><path class="cls-5" d="M426.89,242c-3.6.68-4.62-1.09-4-4.92,3.06-19.1,21.87-34.77,41.36-34.66,4.21,0,4.84,1.45,4.14,5.13C464.73,226.61,446.93,241.62,426.89,242Z"/><path class="cls-5" d="M483,543.37c-7.33.28-7.35.26-5.47-7,4.62-17.85,21.63-31,40.13-31.4,4.94-.11,5.32,2,4.49,6C518.43,528.66,501.6,542.67,483,543.37Z"/><path class="cls-5" d="M417.56,215a49.25,49.25,0,0,1-5.84,20.69c-1.76,3.13-3.17,3.59-6.06,1.18-14.3-11.9-18-37.28-7.73-52.73,2-3.08,3.38-2.57,5.67-.51C412.94,192.05,416.94,202.77,417.56,215Z"/><path class="cls-5" d="M444.55,273.74c-8.13.23-15.44-2.28-22.32-6.45-3.22-1.95-3.81-3.48-.78-6.48,13.33-13.24,35.54-15.66,51.62-5.69,4.55,2.82,3.74,4.84.37,7.72C465.09,270,455.67,274.06,444.55,273.74Z"/><path class="cls-5" d="M332,451.2c.06,3.52.81,8.35-1.79,9.93-3,1.83-6.77-1.48-9.89-3.28-14.6-8.43-23-25.93-20.39-41.93.68-4.24,2-5.34,6.33-3.52A41.7,41.7,0,0,1,332,451.2Z"/><path class="cls-5" d="M486.12,306.1A45.11,45.11,0,0,1,480,328.22c-1.61,2.77-2.84,2.63-5.2.76-14.65-11.68-18.58-37.63-8.11-53.12,2.14-3.17,3.66-2.36,5.77-.36A42.89,42.89,0,0,1,486.12,306.1Z"/><path class="cls-5" d="M524.21,593.58c-14.5-2.24-25.17-8.74-33.19-19.82-1.32-1.82-1.07-2.84,1-3.69,9.28-3.83,17.38-11.12,29-7,12.2,4.32,22.25,10.84,28.89,22.08.87,1.48,3.32,3.3.1,5-2.52,1.34-4.63,1.32-6.07-1.63-1-2-2.21-4-3.32-6-3-5.4-8.09-7.45-13-5.25-4.61,2.08-6.42,6.93-4.67,12.6C523.19,590.7,523.48,591.47,524.21,593.58Z"/><path class="cls-5" d="M504.66,350.6a41.6,41.6,0,0,1,24.39,7c2.12,1.4,3.4,2.26,1,5-10.54,11.74-30.76,16.45-45,10.28-2.79-1.21-3.5-2.91-3.27-5.77.86-10.63,4.7-14.23,17.81-16.2A46.19,46.19,0,0,1,504.66,350.6Z"/><path class="cls-5" d="M319.9,550.92c-7.15.53-14.08-1.82-20.72-5.48-3-1.63-3.89-3.16-1.09-6,10.72-10.77,23.58-15,38.39-12,5.62,1.13,7.51,7.31,11.24,11,1.55,1.56-.9,2.83-2.08,3.75C338.25,548,330,551.27,319.9,550.92Z"/><path class="cls-5" d="M519.48,257.14c.26-13,5.45-23.45,15.68-31.48,2.56-2,4.16-2.46,6,1.21,7.89,15.88,1.7,38.9-13.15,48.54-2.65,1.72-3.73,1.36-4.93-1.44A39.46,39.46,0,0,1,519.48,257.14Z"/><path class="cls-7" d="M325.89,384.74c-.56,5.34.33,12.92-4,14.76-4.59,1.94-9.27-4-12.75-8-9.74-11.06-12.32-23.8-8.37-38,1.15-4.16,2.65-4.06,5.91-2C319.12,359.14,325,370.49,325.89,384.74Z"/><path class="cls-7" d="M257.23,457.08c5.56-3.54,8.24-7.78,5.64-13.44s-7.26-6.08-13-4.93c-10.73,2.12-16.33-2.78-16.93-13.67-.13-2.29.83-2.92,2.77-3,22.28-1.47,42.95,14.26,47,36.39.72,3.91-1.77,3.59-3.93,3.61A44,44,0,0,1,257.23,457.08Z"/><path class="cls-7" d="M523.41,449c0,.4-.08,2.06-.22,3.71-.29,3.37-1.77,3.91-5,2.79-15.81-5.46-26.76-23.21-24.52-39.75.56-4.15,2.11-4.51,5.73-3.14C513.77,418,523.44,431.93,523.41,449Z"/><path class="cls-7" d="M431.42,325.61c-.88-4.3,1-5.65,5.76-4.45,14.63,3.65,26,16.87,27,31.81.43,6.1-.82,7.17-6.5,5.6C442.83,354.43,431.76,340.8,431.42,325.61Z"/><path class="cls-7" d="M397.17,393.3c-2.69-5.56-5.41-11.12-8-16.71a5,5,0,0,1-.59-2.91,37.56,37.56,0,0,1,19.56-25.82c2.73-1.49,3.05.35,3.79,2.16C418,364.88,411.2,384.75,397.17,393.3Z"/><path class="cls-7" d="M291.5,250.18c-3.92-.22-9.14,1.07-10.71-2-1.66-3.24,2.12-7,4.19-10.24a32.21,32.21,0,0,1,8.18-8.38c9.49-7,18.31-6.91,28-.19,2.94,2,1.92,3.53.41,5.44C313.84,244.64,304.05,250.36,291.5,250.18Z"/><path class="cls-11" d="M245.17,454.11c-18-1.54-32.6-9.45-43.55-23.95A26.41,26.41,0,0,1,200,427.5c-1.69-2.89-1.67-5.69,1.27-7.6,3.29-2.14,5.77-.67,7.73,2.38,7.47,11.6,18.4,18,31.61,21a23.47,23.47,0,0,0,11.61-.51c3.08-.84,5.94-.24,6.78,3.43.77,3.34-.71,5.5-4,6.55A35.53,35.53,0,0,1,245.17,454.11Z"/><path class="cls-7" d="M579.21,349.2c8.56-.08,9,.62,5.11,8.58a34.19,34.19,0,0,1-33.43,19.11c-3.83-.32-4.46-1.62-3.37-5.08C551.6,358.83,564.76,349.34,579.21,349.2Z"/><path class="cls-6" d="M473.51,445.88c-.37-4.44.93-9.16,2.91-13.77,1.09-2.54,2.33-2.72,4.65-1.23,12.28,7.91,17.45,28.72,10.42,41.59-1.64,3-2.89,2.55-5.14.88C478.18,467.31,473.5,457.69,473.51,445.88Z"/><path class="cls-6" d="M638.88,418.6c-.17,1.12-.35,2.77-.67,4.38-.74,3.74-.56,9.27-4.16,10.09-3.36.76-6.65-3.6-9.13-6.61-8.25-10.06-10.22-21.3-6-33.7,1.25-3.68,2.66-3.82,5.63-1.68C633.84,397.75,637.89,407.05,638.88,418.6Z"/><path class="cls-6" d="M353,463c.41-14.47,13.21-28.41,27-30.28,4-.55,4.35,1.17,4.13,4.44-1,14.32-13,27.46-27.13,29.85C352.55,467.81,352.78,465.38,353,463Z"/><path class="cls-6" d="M436.4,375.21c0-6.49.25-6.68,6.51-4.47A32.13,32.13,0,0,1,464,402.44c-.17,3.89-1.63,3.73-4.52,3C446.34,402,436.46,389.14,436.4,375.21Z"/><path class="cls-7" d="M563.16,542.79c.38,6.14-1.37,11.77-4.1,17.18-1.27,2.53-2.71,3.55-5,1-2.06-2.29-4.46-4.32-6.23-6.8-9-12.55-6.66-23.79,6.18-32.15,2.46-1.6,2.88.31,3.63,1.51C561.35,529.41,563.6,535.73,563.16,542.79Z"/><path class="cls-12" d="M585.73,248.76c1.78,6.58.37,11-5,15.64-8,6.88-10.65,16.93-11.14,27.38-.1,2.06,0,4.14,0,6.21a5,5,0,0,1-9.91,1C556.56,278.93,568.05,254.55,585.73,248.76Z"/><path class="cls-7" d="M259.84,601.78c5.56-15.41,16.81-23.25,32.22-22.45,6.79.36,7.46,1.65,4,7.73a30.82,30.82,0,0,1-30.81,15.16c-1.82-.25-3.65-.35-5.48-.52Z"/><path class="cls-6" d="M262,308.63c.08-.8.16-1.62.24-2.44.39-4.3.29-10.41,4.3-11.33,3.62-.83,7.06,4.16,9.56,7.79,6.32,9.2,7.55,19,3.66,29.5-1.12,3-2.33,3.81-5.2,1.63C266.14,327.42,262.16,319,262,308.63Z"/><path class="cls-6" d="M311.18,632.56c-2.36.3-3-.95-3-3.3,0-12.48,17.12-27.7,29.47-26.16,2.08.26,2.69.82,2.5,3.09C339.1,619.26,324.26,632.95,311.18,632.56Z"/><path class="cls-6" d="M474.15,510.47c-2.87.23-3.74-.84-3.28-4,1.69-11.68,15-23,26.91-22.68,3.52.08,3.54,1.82,3.12,4.39C499,499.72,486.26,510.44,474.15,510.47Z"/><path class="cls-6" d="M554.69,327c5.27-.14,10.26,1.59,15,4.38,2.83,1.67,2.54,3.08.36,5.18-9,8.65-24.78,10-35.12,3.12-3-2-2.36-3.17-.27-5A28.05,28.05,0,0,1,554.69,327Z"/><path class="cls-6" d="M568.4,456.22c.07,10.46-4.14,18-11.86,23.91-4.08,3.14-5.38,1.68-6.49-2.55a29.18,29.18,0,0,1,10.13-29.92c5.21-4,6.69-3.44,7.81,3A49.14,49.14,0,0,1,568.4,456.22Z"/><path class="cls-6" d="M315.55,344.3a34,34,0,0,1-14.28-3.86c-3.51-1.82-3-3.93-.89-6.36,7.16-8.35,26.51-9.46,35-2.26,2.41,2,.95,3-.35,4.36C329.69,341.71,322.87,343.66,315.55,344.3Z"/><path class="cls-6" d="M364.18,496.3c-.49,6.57-1.92,12.71-6.15,17.91-1.87,2.3-3.53,3.42-5.24-.17-1.59-3.34-3.39-6.57-5-9.89-5.63-11.42,1.23-17.09,9.14-22.1,2.34-1.48,3.78-.88,4.68,1.65A56.83,56.83,0,0,1,364.18,496.3Z"/><path class="cls-6" d="M369.92,232.57c7.13-.35,21.33,10.4,22.85,17.15.7,3.09-1.84,3.9-3.41,5.27-8.4,7.27-10.2,7-16.66-2.4-3.37-4.89-4.83-10.44-5.34-16.27C367.2,234.45,367,232.37,369.92,232.57Z"/><path class="cls-6" d="M487.7,217.84c-10.23-5.63-15.1-14.12-16.42-25.06-.45-3.73,1.36-4.3,4.32-3.7a31.11,31.11,0,0,1,15.67,8.26c1.59,1.53,1.72,2.91,1.06,4.92C490.72,207.14,489.38,212.11,487.7,217.84Z"/><path class="cls-6" d="M247.4,404.79c-8.46,7.28-23.71,7.82-32.52,1.54-2.27-1.61-2.55-2.82-.48-4.78a29.43,29.43,0,0,1,12.74-7.33c1.59-.42,3.19-.61,4.69.63C236.56,398.78,242,401.7,247.4,404.79Z"/><path class="cls-6" d="M621.52,443.94c-.71,9.73-12,20-21.92,20.32-2.82.09-3-1.05-2.94-3.24.29-9.61,12.86-21.37,22.2-20.69C621.47,440.52,621.74,440.89,621.52,443.94Z"/><path class="cls-6" d="M590.58,381.78c-.47,9.32-4.39,16.61-12.59,21.41-2.77,1.62-4.47,1.53-5-2.26-1.4-9.35,1.27-17.15,8.43-23.31,2.14-1.84,4.73-4.77,7.36-3.4C590.79,375.3,590.58,379,590.58,381.78Z"/><path class="cls-13" d="M524.21,489.93c-8.72-1.28-16.33-8.19-18.33-16.19-.62-2.5-.57-3.64,2.55-3.86,9.5-.67,13.94,2.85,14.81,12.18C523.47,484.66,523.87,487.27,524.21,489.93Z"/></g></g></svg>