<svg id="Layer_1" data-name="Layer 1" xmlns="http://www.w3.org/2000/svg" viewBox="0 0 162.96 162.97"><defs><style>.cls-1{fill:#5a512c;}.cls-2{fill:#fefefe;}.cls-3{fill:#9faf3e;}</style></defs><title>TGIF</title><path class="cls-1" d="M1047.08,475.85a81.48,81.48,0,1,1-79.18-82.72A81.51,81.51,0,0,1,1047.08,475.85Zm-81.44-79.24a78,78,0,1,0,77.94,79.05A78.06,78.06,0,0,0,965.64,396.61Z" transform="translate(-884.13 -393.1)"/><path class="cls-2" d="M965.64,396.61a78,78,0,1,1-78,77.44A78.13,78.13,0,0,1,965.64,396.61Zm55,43.24.22.19c-1,1.93-1.92,4-3.13,5.78a3.33,3.33,0,0,0,.05,4.27c.45.64.71.75,1.38.37,2.59-1.49,5.23-2.9,7.82-4.38.61-.35,1-.53,1.56.18.73.91,1.26-.29,1.9-.46s.31-.59.12-.95c-.66-1.18-1.31-2.37-2-3.56-.15-.27-.37-.7-.7-.38-.54.52-2.07.29-1.43,1.78.12.29-.17.42-.37.53l-4.65,2.55a52.11,52.11,0,0,1,3.08-5.75c1.59-2.24,1.59-4.23-.14-6.29-.26-.32-.34-1.11-1-.53s-1.86.19-1.32,1.5c.26.63,0,.91-.54,1.19q-2.85,1.52-5.64,3.14c-.62.36-1,.48-1.57-.2s-1.26.33-1.9.51-.28.55-.11.85c.63,1.15,1.27,2.31,1.92,3.45.18.31.32.88.85.45s1.65-.37,1.44-1.27.18-.9.62-1.14Zm6.79,36.85c2.92,0,5.84,0,8.76,0a2.23,2.23,0,0,0,2.25-1.28c.75-1.61-.37-3.14-2.35-3.14-5.76,0-11.52,0-17.28,0-.8,0-1.11-.19-1.14-1a45,45,0,0,0-1.37-9.1,51.24,51.24,0,0,0-51.17-38.85A51.23,51.23,0,0,0,915.49,471c-.07,1-.4,1.28-1.41,1.27-5.52-.06-11,0-16.56,0a2.59,2.59,0,0,0-2.19.74,2.09,2.09,0,0,0-.38,2.34,2.17,2.17,0,0,0,2.2,1.34c5.72,0,11.44,0,17.16,0,.81,0,1.11.19,1.15,1a47.39,47.39,0,0,0,.82,6.53c5.08,26.52,30.25,44.77,57,41.06,16.11-2.24,28.51-10.47,37.12-24.26a48,48,0,0,0,7.25-22.82c.07-1.2.42-1.59,1.67-1.54C1022,476.78,1024.72,476.7,1027.44,476.7ZM921.86,422.11c.09,0,.19,0,.23.07a8.06,8.06,0,0,1,1.6,1.75c.27.55-.57.84-.9,1.24s-.92.79-1.27,1.27c-.74,1-1.36,1-2.07,0-.39-.55-1.21-.78-.55-1.82.33-.53-.71-1.1-1.2-1.58s-.63.15-.86.35c-1,.89-1.92,1.8-2.83,2.76-.27.28-1.18.54-.39,1.13.55.41.78,1.77,1.92.85.41-.33.68-.25,1,.09,1.66,1.73,3.33,3.45,5,5.17.19.2.5.43.21.7-1.21,1.11,0,1.57.56,2.23.3.38.56.3.88,0,1.11-1.1,2.23-2.17,3.35-3.26.19-.18.54-.45.19-.67-.66-.41-.86-1.87-2.12-1-.28.19-.44,0-.6-.21-.39-.4-.75-.83-1.17-1.2s-.37-.6,0-.94a16.28,16.28,0,0,0,2-1.91c.76-.95,1.35-1,2.06,0,.39.56,1.14.81.51,1.82-.35.58.75,1.07,1.21,1.56s.62-.13.84-.34c1-.93,2-1.88,2.94-2.82.39-.37.85-.75.17-1.21-.52-.35-.72-1.59-1.73-.74-.42.35-.69.36-1.09-.06-1.61-1.72-3.27-3.4-4.89-5.1-.2-.21-.64-.43-.27-.77,1.16-1.06-.06-1.51-.51-2.16-.29-.42-.55-.43-.93,0-.83.86-1.71,1.68-2.58,2.5-1.27,1.19-1.21,1.12-.09,2.4C921.1,422.86,921.43,422.29,921.86,422.11Zm65.63-13c0-2-1.1-3.16-3.45-3.73s-4.59-1-6.88-1.56c-.44-.1-1-.3-.94.39s-1,1.47.13,1.92c.78.31.77.73.62,1.37-.48,2.06-.95,4.12-1.39,6.18-.14.68-.31,1.06-1.18,1.07-1.08,0-.63,1.16-.9,1.77s.37.54.73.63c1.2.28,2.4.59,3.61.82.4.08,1.1.51,1.2-.19s1-1.43-.09-2.1c-.67-.42-.1-1-.07-1.5,0-.32.17-.45.54-.44,1.63,0,2.28.64,2.26,2.28a6.42,6.42,0,0,1-.29,1.64c-.21.74-.11,1.18.77,1.31s2,.42,3,.65c.4.09.91.27.88-.35s1-1.5-.12-2c-1.33-.57-.87-1.92-1.41-2.82-.13-.21.19-.32.35-.4C987.14,413,987.21,410.93,987.49,409.11ZM897.5,454c.36,4.34.87,8.4,3.35,11.89,1.82,2.56,4.53,3.38,7.53,3.49a.85.85,0,0,0,1-.68c.8-2.88.69-5.68-1.17-8.1C905.52,457.11,901.64,455.53,897.5,454ZM1036,454c-4,1.47-7.55,3-10.23,6-2.24,2.52-2.54,5.48-1.69,8.64a.9.9,0,0,0,1,.76,9.31,9.31,0,0,0,6-2C1035.09,463.84,1035.34,459,1036,454Zm-69.81-44.29a12.9,12.9,0,0,1-2,.09c-1.18-.12-1.35.41-1.31,1.45s.28,1.22,1.15,1.14a3.56,3.56,0,0,1,1.19.06c.35.09.89-.22,1,.34a1.06,1.06,0,0,1-.66,1.28,5.35,5.35,0,0,1-4,.11,1.56,1.56,0,0,1-.89-1.46c-.08-1.27-.18-2.55-.2-3.83a2.44,2.44,0,0,1,2.41-2.71c.4,0,.8,0,1.2,0,.92-.12,1.57.1,1.61,1.17,0,.54.29.71.85.71,2.07,0,2.08,0,2-2a15.29,15.29,0,0,1-.06-1.55c0-.65-.29-.84-.84-.89a33.21,33.21,0,0,0-5.49-.27c-2.9.22-4.68,1.85-4.9,4.74a23.19,23.19,0,0,0,.32,6.08,3.31,3.31,0,0,0,1.93,2.73,9.18,9.18,0,0,0,8.37-.67c1.39-.89,2.16-4.5,1.15-6.2C968.57,409.09,967.19,409.82,966.18,409.68ZM937,415.31a.32.32,0,0,1-.43-.17,6.15,6.15,0,0,1-.85-2.06c0-.45.87-.55,1.35-.81s.81-.35,1.17-.59c.58-.39,1-.35,1.37.28a.78.78,0,0,0,1.16.38c1.05-.43,1.33-.91.65-1.9a9.76,9.76,0,0,1-.94-1.93c-.22-.54-.48-.62-1-.37-2.9,1.41-5.82,2.79-8.73,4.2-.23.11-.63.18-.5.54a9,9,0,0,0,.75,1.62c.31.51.72.08,1.05,0,.52-.14.6.23.75.55,1,2.12,2,4.25,3.06,6.36.21.43.25.73-.21,1-1.26.71,0,1.33.12,2,.23.9.82.33,1.21.15,2.38-1.11,4.75-2.27,7.12-3.4,2-1,2-1,1-3a2.49,2.49,0,0,0-.3-.65c-.32-.34-.16-1.3-1.06-.91-.69.3-1.67.43-1.18,1.61.15.37.18.68-.27.88-.94.43-1.87.89-2.82,1.32-.12.06-.39.08-.42,0a8.32,8.32,0,0,1-1-2.15c-.09-.47.7-.54,1.1-.74,1.72-.89,1.7-.86.86-2.6-.32-.67-.66-.76-1.28-.39S937.52,415,937,415.31ZM990.27,419c-.69.32-.8,1.05-1.15,1.59s.17.67.5.86c2.05,1.15,4.11,2.3,6.17,3.42.93.51,1.94,1.62,2.8,1.33s1.17-1.79,1.74-2.74c.18-.31.59-.73,0-1s-1.09-1.18-1.72-.36-1.26.61-2,.15c-.54-.34-1.11-.63-1.68-.92s-.61-.46-.33-1c.92-1.82.9-1.83,2.66-.86a1.15,1.15,0,0,1,.21.12c.78.68,1.18.32,1.58-.47.77-1.5.8-1.48-.65-2.29-.31-.17-.64-.34-.94-.53s-.47-.22-.28-.54a6.49,6.49,0,0,1,1.18-1.91c.34-.27.95.41,1.44.64s.75.46,1.16.63c.62.25.88.62.57,1.27s0,.88.49,1.22c.79.5,1.3.58,1.7-.43a11.42,11.42,0,0,1,1.1-2c.38-.58.24-.87-.34-1.18-2.73-1.49-5.44-3-8.17-4.51-.38-.21-.91-.72-1.13.06-.17.63-1.49,1.17-.31,2,.55.37.45.71.17,1.19-1,1.73-1.92,3.5-2.92,5.22C991.74,418.63,991.61,419.91,990.27,419Zm20.55,11.48a2.74,2.74,0,0,0,.54-.21,7.31,7.31,0,0,0,1.6-1.75c.2-.42-.64-.8-1-1.22a6.79,6.79,0,0,0-.76-.77c-.33-.29-.21-.48,0-.77,1.38-1.65,1.42-1.66,2.92-.16l.17.17c.74.67,1.52,1.22.6,2.43-.48.64.58,1,.92,1.41s.61,0,.84-.22c.66-.64,1.28-1.32,2-1.94.45-.41.49-.7,0-1.15-2.32-2.25-4.61-4.54-6.92-6.81-.16-.16-.37-.48-.56-.33a10.05,10.05,0,0,0-1.38,1.33c-.36.41.12.66.32.89.46.52.05.77-.25,1.07-1.58,1.58-3.18,3.15-4.74,4.76a.91.91,0,0,1-1.38.19c-1-.6-1.14.65-1.71,1s0,.66.21.9c2.25,2.27,4.53,4.52,6.77,6.79.42.42.69.53,1.13,0,.61-.69,1.29-1.3,1.94-2,.26-.27.74-.56.18-.93s-.7-1.45-1.57-.79-1.3.36-1.85-.31-1-1-1.43-1.45c-.16-.16-.51-.37-.36-.55a8.22,8.22,0,0,1,1.66-1.69c.43-.29.7.38,1,.66A14.85,14.85,0,0,1,1010.82,430.47ZM910.7,507.88l-.2-.17a27.87,27.87,0,0,1,1.91-3.54,3.35,3.35,0,0,0,0-4.4c-.84-1.2-.73-1.27-2-.45-.34.21-.62.38-.41.83a.51.51,0,0,1-.27.77c-1.4.76-2.79,1.54-4.2,2.31-.23.12-.48.29-.74,0-.81-1-1.34.1-1.91.35-.75.33,0,.81.12,1.16a17.13,17.13,0,0,0,1.09,2c.19.31.23,1,.7.83s1.55-.46,1.57-.95c.08-1.62,1.56-1.22,2.31-1.88a16.07,16.07,0,0,1-1.81,3.59,2.82,2.82,0,0,0,.05,3.66c.43.65.68.78,1.37.38,1.86-1.08,3.77-2.09,5.66-3.11.29-.15.58-.51.93-.09.87,1,1.45-.07,2-.38s-.09-.82-.26-1.19c-.36-.8-.81-1.55-1.25-2.32-.12-.22-.26-.7-.54-.47-.54.42-1.63.26-1.56,1.35,0,.44-.27.54-.54.69C912,507.17,911.36,507.53,910.7,507.88ZM1018,514l0-.24a30.33,30.33,0,0,1,3.89.24,2.89,2.89,0,0,0,3.5-1.65c.32-.61.43-.87-.21-1.31-1.78-1.21-3.51-2.49-5.25-3.77-.27-.2-.8-.28-.55-.88.5-1.19-.7-1.25-1.23-1.65s-.64.38-.88.66a16.57,16.57,0,0,0-1.4,1.94c-.19.31-.85.66-.32,1s.89,1.25,1.74.78a.58.58,0,0,1,.74.07l2.38,1.75a28.38,28.38,0,0,1-4-.22,3.78,3.78,0,0,0-4.7,2.29c-.14.31-.73.59-.17,1s1,1.18,1.55.8c.81-.62,1.19-.13,1.71.24.81.58,1.65,1.13,2.42,1.75.53.43,1.61.62,1,1.74,0,.06.14.25.24.36,1.06,1.12,1.38,1.09,2.29-.19a11.33,11.33,0,0,0,1-1.37c.2-.4,1.06-.75.46-1.24s-.89-1.41-1.84-.72c-.33.23-.52-.08-.73-.22C1019,514.82,1018.51,514.41,1018,514Zm-98.63-71.8c-.32-.54-1-.64-1.48-1a.53.53,0,0,0-.88.21c-.41.91-1,.65-1.61.28-1.77-1-3.57-2-5.34-3-.38-.21-1.19-.28-.63-1,.39-.53.36-1.78,1.59-1,.54.32.89.26,1.22-.37.71-1.33.76-1.3-.55-2-.7-.38-1.42-.74-2.1-1.15-.43-.26-.68-.26-.94.23q-2.73,5.05-5.51,10.08c-.22.39-.23.62.21.85,1,.53,2,1.11,3.05,1.66.13.07.39.13.42.08a9.63,9.63,0,0,0,.93-1.65c.2-.52-.4-.63-.7-.81-1.05-.63-.1-1.13.07-1.66s.59-.66,1.18-.33c1.87,1.07,3.76,2.11,5.67,3.1.66.34.83.62.53,1.37-.46,1.16.84,1,1.32,1.43s.74-.05.95-.44l2.29-4.2C919.11,442.67,919.2,442.49,919.34,442.21Zm105.54,53a3.35,3.35,0,0,0-3.38,2.06c-.86,1.67-1.65,3.37-2.47,5.05-.14.29-.51.67,0,.89s1.27,1,1.66.53c.69-.8,1.15-.35,1.73-.07l3.24,1.55c.47.22.83.39.78,1.12s1,.77,1.49,1.09.54-.33.67-.58c.84-1.68,1.66-3.36,2.43-5.07.54-1.19.75-2.46-.25-3.47A13.16,13.16,0,0,0,1024.88,495.24Zm-80.69,35.33c.24-.71-.17-1.11-1-1.41-1.12-.41-2.19-1-3.3-1.4-.32-.13-.77-.6-1,0s-1,1.15-.45,1.78c.38.45.28.61,0,.94-1,1.17-2,2.36-3.05,3.54-.2.23-.38.6-.76.47-1.43-.47-1.35.83-1.56,1.49s.7.64,1.11.87a12.14,12.14,0,0,0,2.08.91c.36.12.81.69,1.14.16a2.67,2.67,0,0,0,.63-1.74c0-.25-.56-.39-.22-.78s.66,0,1,.09a10.16,10.16,0,0,1,1.1.47c.25.11.51.2.48.58s-.35.29-.61.33c-.87.15-.71,1-1.05,1.56-.22.34.17.47.41.58,1.35.59,2.71,1.17,4.07,1.75.17.07.31.2.53,0a1.68,1.68,0,0,0,.07-2.28c-.43-.33-.29-.69-.26-1.07C943.74,535.2,944,533,944.19,530.57Zm66.34-2.36c1.59-.12,2.61-1.17,3.64-2.17,1.78-1.71,1.86-3.27.27-5.14-.88-1-1.84-2-2.73-3-.18-.21-.64-.36-.41-.75.65-1.08-.44-1.44-.91-1.86s-.85.42-1.26.69a9.41,9.41,0,0,0-1.15,1c-1.21,1.12-1.21,1.11,0,2.22.21.19.35.46.68.2s.65,0,.89.27l2.52,2.73a1.33,1.33,0,0,1,0,2.17c-.86.77-1.36.75-2.24-.16s-1.57-1.7-2.37-2.55c-.35-.37-.52-.65-.16-1.21.54-.84-.55-1-.87-1.56s-.66,0-.93.2c-.86.78-1.71,1.56-2.55,2.36-.23.22-.75.4-.44.81s.93,1.43,1.32,1.22c1.21-.64,1.46.38,2,.88.81.77,1.53,1.63,2.32,2.42A3.77,3.77,0,0,0,1010.53,528.21Zm-38.11,12.85-.29,0c-.51-1.48-1-3-1.54-4.43-.1-.28,0-.41.32-.51,1.13-.37.34-1.2.36-1.8s-.66-.38-1-.38c-1.16,0-2.31.12-3.46.22-.3,0-.83-.17-.78.43s-.25,1.52.38,1.71.85.74,1.05,1.26c.5,1.26,1,2.53,1.46,3.8.4,1,.56,2.44,1.32,3s2.23,0,3.38,0c.66,0,.88-.29,1-.88.48-2.18,1-4.35,1.53-6.52.13-.52.21-1,.88-1.26.83-.35.18-1.2.23-1.82s-.51-.35-.82-.33c-.92,0-1.83.14-2.75.19-1.59.08-1.6.09-1.39,1.61.06.42.15.67.61.71s.41.24.34.59C973,538.13,972.71,539.6,972.43,541.06Zm14-3.61a5.77,5.77,0,0,0-.71-1.89c-.3-.35-1,.12-1.44.26s-.75.07-.83-.47c-.05-.36-.45-.9.1-1,.75-.16,1.66-1,2.27-.24.74,1,1.37.35,2,.12s0-.81,0-1.22a11.24,11.24,0,0,0-.38-1.38c-.12-.65-.36-.86-1.06-.65-2.29.69-4.59,1.32-6.89,2-.3.09-.85,0-.73.57s.07,1.63.69,1.62c1.06,0,1,.68,1.2,1.27.37,1.22.68,2.46,1,3.68.13.44.23.71-.3,1.06-.77.5,0,1.19.08,1.78s.59.31.94.21l5.17-1.46c2.65-.74,2.65-.74,1.8-3.37-.1-.32-.08-.85-.6-.65s-1.28,0-1.35.72-.24,1-.84,1.08-1,.25-1.51.38c-.21.05-.27-.09-.33-.23-.28-.65-.56-1.28.52-1.49C985.64,538,986.25,538.11,986.42,537.45Zm12.79-.68.52-.32,3.35-2.09c.43-.27.88-.53.34-1.07s-.38-1.6-1.47-.93c-.51.32-.82.27-1.15-.28s.08-.75.43-1a4.2,4.2,0,0,1,.61-.38c1-.43,1.24-.93.49-1.92-.53-.7-.87-1-1.62-.38a7.54,7.54,0,0,1-1.11.71c-.19.12-.44.32-.6,0-.24-.48-1.06-1-.58-1.45s1.32-1.54,2.18-1,1.35,0,1.84-.39c.68-.51-.16-.85-.32-1.26s-.53-.8-.74-1.23c-.29-.58-.56-.7-1.16-.3-2,1.34-4.11,2.6-6.16,3.91-.24.15-.86.21-.51.71s.48,1.59,1.21,1.39c.89-.24,1,.24,1.33.72l2,3.24c.27.43.57.77,0,1.31s.27.86.45,1.29C998.71,536.4,998.79,536.78,999.21,536.77Zm-51.33,4.52c-.25.67.1.78.54.87a20,20,0,0,1,3,.73c1.22.47,1.64,0,1.77-1.13.05-.44.12-.79-.42-.92s-.5-.39-.39-.81c.38-1.46.72-2.94,1.08-4.41.07-.27,0-.74.51-.58.34.11.92,0,.82.64-.23,1.33.89,1,1.48,1.15.85.25.61-.63.77-1s.2-1.1.39-1.62.05-.82-.58-1c-2.26-.5-4.49-1.07-6.74-1.6s-2.38-.55-2.93,1.85c-.09.41-.64,1,.22,1.24.62.14,1.44.89,1.84-.36.16-.49.52-.35.89-.25s.52.24.41.66c-.39,1.54-.75,3.09-1.12,4.64-.06.25-.14.54-.42.49C947.69,539.69,948.2,540.9,947.88,541.3Zm-24.32-22c-.14.18-.23.31-.33.42-1.06,1.19-2.14,2.37-3.18,3.58-.27.31-.47.27-.8.09-1-.56-1.09.6-1.58,1s0,.66.28.89c.91.83,1.83,1.66,2.77,2.47.18.16.29.48.67.3a1.74,1.74,0,0,0,.8-2.05c-.22-.43.07-.59.26-.81,1-1.08,1.91-2.15,2.88-3.2.21-.22.36-.73.83-.35s.73.56.32,1.07c-.29.36-.28.63.1,1,1.07,1,1,1,2-.1a6.82,6.82,0,0,1,.73-.79c.69-.58.73-1,0-1.65-1.69-1.4-3.29-2.9-4.92-4.37-1.83-1.65-1.84-1.67-3.47.22-.26.3-1.12.6-.43,1.18.47.4.8,1.48,1.81.62C922.92,518.28,923.15,519,923.56,519.31Zm106.27-33.82c.05-3.46-1.35-5.72-4-6.71-.49-.18-.87-.31-1.21.26a6.09,6.09,0,0,0-1,4.77c.73,2.83,2.76,4.69,4.85,6.51.54.47.62,0,.74-.39A21.78,21.78,0,0,0,1029.83,485.5Zm-126.23.45a22.85,22.85,0,0,0,.64,3.9c.14.6.3.91.91.38a16.73,16.73,0,0,0,4.17-4.88,6,6,0,0,0-.38-6.14.92.92,0,0,0-1.36-.42C904.9,479.87,903.58,482,903.6,485.95Zm7.5,10.75c-.45-1.24-.88-2.49-1.36-3.71-.11-.28-.11-.9-.61-.7s-1.64.11-1.63.89c0,1-.55,1-1.12,1.21l-3.59,1.31c-.32.12-.64.37-.95-.07-.73-1-1.42,0-2,.16s0,.74.07,1.1c.24.84.65,1.63.86,2.48.28,1.14.82,1.35,1.81.8.39-.22.84-.27.61-.91-.16-.43.2-.52.51-.64l4.26-1.58c.38-.14.7-.27,1,.25.43.8,1,.06,1.42,0C910.65,497.22,911.08,497.19,911.1,496.7ZM960,536.91c-.13,1.35-.26,2.7-.39,4,0,.45,0,.83-.7,1s-.45,1.13-.52,1.75.48.38.78.42q1.66.2,3.33.32c.31,0,.83.31.88-.23s.62-1.55-.07-1.86-.69-.82-.64-1.39c.1-1.31.23-2.62.36-3.93,0-.43,0-.78.67-.91.93-.19.48-1.1.61-1.69s-.46-.52-.8-.55c-1.15-.13-2.3-.23-3.45-.32-.32,0-.83-.22-.84.34s-.61,1.45.21,1.81S960,536.4,960,536.91Zm-38.57-23.2c-.09-.13-.22-.33-.36-.51-.73-.9-1.45-1.81-2.2-2.69-.2-.24-.39-.77-.82-.43s-1.45.73-1.22,1.29c.43,1-.29,1.25-.78,1.67-.91.78-1.86,1.51-2.78,2.28-.39.32-.64.5-1.22.15-.76-.46-1.08.54-1.61.86s0,.61.18.86c.59.76,1.2,1.49,1.81,2.24,1,1.21,1,1.21,2.14.11.24-.23.5-.44.23-.8s-.08-.7.26-1q1.73-1.39,3.44-2.8c.32-.26.56-.48,1-.11S921.37,514.29,921.41,513.71Zm5.73,16.19c-.7.2-.84.9-1.18,1.4s.25.65.54.85c1,.65,1.95,1.25,2.89,1.91.42.29.73.33.94-.17s1.32-1.08.25-1.86c-.19-.14,0-.36.07-.53l2.67-4.11a.52.52,0,0,1,.69-.28c1.23.43,1.16-.8,1.54-1.33s-.41-.63-.7-.84c-.84-.61-1.71-1.17-2.6-1.69-.28-.17-.62-.74-1-.2s-1.15,1.16-.78,1.58c.8.89.08,1.35-.26,1.92-.55.92-1.15,1.82-1.76,2.71C928.18,529.67,928,530.47,927.14,529.89Z" transform="translate(-884.13 -393.1)"/><path class="cls-1" d="M1027.44,476.7c-2.72,0-5.44.08-8.16,0-1.24-.05-1.59.34-1.67,1.54a48,48,0,0,1-7.25,22.82c-8.61,13.79-21,22-37.12,24.26-26.7,3.7-51.88-14.55-57-41.06a47.39,47.39,0,0,1-.82-6.53c0-.83-.34-1-1.15-1-5.72,0-11.44,0-17.16,0a2.17,2.17,0,0,1-2.2-1.34,2.09,2.09,0,0,1,.38-2.34,2.59,2.59,0,0,1,2.19-.74c5.52,0,11,0,16.56,0,1,0,1.34-.23,1.41-1.27a51.23,51.23,0,0,1,49.65-47.72,51.24,51.24,0,0,1,51.17,38.85,45,45,0,0,1,1.37,9.1c0,.84.34,1,1.14,1,5.76,0,11.52,0,17.28,0,2,0,3.1,1.53,2.35,3.14a2.23,2.23,0,0,1-2.25,1.28C1033.28,476.69,1030.36,476.7,1027.44,476.7Zm-94.8-35.36-.37.26a24.54,24.54,0,0,0-3.67,4.4,31.11,31.11,0,0,0-5.07,8.53,24.49,24.49,0,0,0-2.4,6,22,22,0,0,0-1.15,4.26,13.24,13.24,0,0,0-.52,4.59,23.34,23.34,0,0,0-.43,7.05,20.66,20.66,0,0,0,.63,5.28l.07,1.19a25.27,25.27,0,0,0,1.62,6l.26,1.24a35.11,35.11,0,0,0,3.34,7.11,3.68,3.68,0,0,0,.76,1.44,14.43,14.43,0,0,0,2.1,3.17,23.82,23.82,0,0,0,2.49,3.32,26.67,26.67,0,0,0,4,4.06h0a3.18,3.18,0,0,0,1.91,1.47,8.52,8.52,0,0,0,9-4.22c.37-.64.8-1.06,1.52-.66s.57,1,.25,1.67a9.4,9.4,0,0,1-4.73,4.4,18.14,18.14,0,0,1-3.58.94c.06.12.07.22.13.26a47.54,47.54,0,0,0,17.81,7.93c1,.21.92-.27,1-.94.39-6.1.54-12.21.72-18.32a1.42,1.42,0,0,0-1-1.61,16,16,0,0,1-8.45-8.1c-.43-.94-.79-1.11-1.78-.71-4,1.6-8.09.2-9.68-3.2-.31-.66-.67-1.45.21-1.88s1.24.22,1.59,1a5.1,5.1,0,0,0,6.89,2.24,28.52,28.52,0,0,1-3.51-4.09,27.87,27.87,0,0,1-4.7-12.92c-.12-1.09-.39-1.55-1.58-1.32a6,6,0,0,1-2.72-.27,11.62,11.62,0,0,1-7-5.52,1,1,0,0,1,.31-1.54c.61-.35,1.06-.07,1.41.47.21.34.41.69.66,1,1.87,2.37,4.16,3.93,7.32,3.91,1,0,1.33-.27,1.3-1.3a37.21,37.21,0,0,1,1.3-10.07c.17-.69.4-1.39,1.31-1.18s.85.93.65,1.63a36.65,36.65,0,0,0-1.24,7.55c-.39,6.85.91,13.28,5,19a13.53,13.53,0,0,0,3.09,3.29c0-.61.08-1.07.11-1.53a13.77,13.77,0,0,1,1.32-4.94c.33-.7.79-1.2,1.57-.83s.61,1,.29,1.64c-.13.25-.25.5-.36.76-2.44,5.8,1.41,13.5,7.62,15.13,0-3.61,0-7.2,0-10.8,0-.43-.09-.68-.58-.68s-.43-.38-.42-.7-.1-.67.32-.63c1.25.13.91-.75,1-1.41a6.69,6.69,0,0,1,.11-1.54,17.47,17.47,0,0,0,.35-7.81c-.89-6.1-2.85-11.32-9.92-12.52a.9.9,0,0,1-.74-1.18.88.88,0,0,1,1-.75c.36,0,.71.1,1.06.17a15.49,15.49,0,0,1,4,1.49c-.06-.35-.09-.58-.15-.81a20.13,20.13,0,0,1-.2-9.14c1.17-5,4.38-8.5,8.64-11.14.68-.42,1.51-1.2,2.15-.13s-.42,1.42-1.11,1.86c-5.95,3.7-8.95,8.86-7.91,16a16.28,16.28,0,0,0,1.86,6.39,21.91,21.91,0,0,1,3,7.64c.45,2.36.58,4.76.88,7.16,1.54-5.11,4-9.93,4.21-15.47.55.29.44.62.48.87.26,1.81.22,3.64,1.09,5.36a49,49,0,0,1,1.82,4.81c.68,1.81,1.38,3.63,2.19,5.77a18.59,18.59,0,0,1,2.55-7.73c.58-.92,1.77-1.63,1.91-2.53s-.79-2-1.09-3.05a9.74,9.74,0,0,1,1.72-9.47c.46-.55,1-.87,1.64-.31s.38,1.06-.05,1.59c-2.36,2.85-2.2,5.92-.82,9.11.3.69.57.88,1.31.46a12.07,12.07,0,0,1,5.51-1.42c.74,0,1.55-.07,1.59,1s-.72,1-1.42,1c-5,.27-8.17,2.88-9.95,7.49-1,2.54-.67,5.08-.49,7.65,0,.58.49.41.81.42s.55.12.52.48.14.83-.17.87c-1.13.13-.75,1-.76,1.54-.07,4-.08,8.08-.1,12.12,0,1.47,0,1.5,1.44,1.09,5.48-1.57,9.55-5.17,13.29-9.25.52-.56,0-.75-.3-1a7.41,7.41,0,0,1-2.47-4.4c-.52-2.91.25-5.62,1.21-8.32.25-.7.52-1.47,1.47-1.14s.74,1.08.45,1.8a16.77,16.77,0,0,0-1.27,5.46,6,6,0,0,0,2,5.16c.42.37.66.39,1-.11a41.41,41.41,0,0,0,7.89-16.76,25.29,25.29,0,0,0,.11-10,1.06,1.06,0,0,1,.53-1.32.87.87,0,0,1,1.18.27,3,3,0,0,1,.35,1.13,31.36,31.36,0,0,1-2.48,17.66c-.74,1.75-1.64,3.44-2.46,5.16,4.38,1,7.77-.9,9-5.14.1-.35.19-.69.26-1,.13-.68.48-1.12,1.23-1s.84.69.73,1.29c-.72,3.87-2.7,7.16-7.07,7.88a14.79,14.79,0,0,1-4.3.11,1.75,1.75,0,0,0-1.92,1,43.33,43.33,0,0,1-7.78,8.76c-3.34,2.86-7,5.26-11.4,6-.72.12-.73.53-.73,1.09,0,5.16.24,10.31.46,15.46,0,1.16.39,1.24,1.38,1a51,51,0,0,0,13.13-4.73.66.66,0,0,0,.45-.42,23.9,23.9,0,0,0,4.52-2.7,11.72,11.72,0,0,1-7.89-6c-.36-.65-.72-1.38.14-1.88s1.24.19,1.61.87a9.14,9.14,0,0,0,4.8,4.47c3.41,1.25,4.12.84,6.17-1.46l.25-.25a34.46,34.46,0,0,0,5.36-5.8,13.31,13.31,0,0,0,1.36-2.09,19,19,0,0,0,3.11-5.29,6.07,6.07,0,0,0,1.24-2.82c.88-1,1-2.34,1.55-3.51l.79-2.79a25.94,25.94,0,0,0,.94-4.32l.44-3.19.26-4a32.59,32.59,0,0,0-.35-5.75,8.72,8.72,0,0,0-.51-3.18,10.6,10.6,0,0,0-.55-3.07c0-.12,0-.34-.22-.26h0a18.18,18.18,0,0,0-2.16-6.58,17.05,17.05,0,0,0-1.77-4,34.19,34.19,0,0,0-3.31-5.38c-.13-.57-.71-.8-1-1.27a17.67,17.67,0,0,0-2.85-3.34,17.13,17.13,0,0,0-3-3,21.59,21.59,0,0,0-4.47-3.63,10,10,0,0,0-2.56-1.65,17,17,0,0,0-3.25-2l-2.08-1-2.87-1.15a2.12,2.12,0,0,1-.62,1.68,6.35,6.35,0,0,0-1.26,2.82A15.06,15.06,0,0,0,983,445c.34.6.61,1.18-.15,1.64s-1.2,0-1.57-.56a5.29,5.29,0,0,1-.47-.83c-2.16-5.42-2.74-10.75,1-15.83a45.85,45.85,0,0,0-9.26-2.15l-1.94-.23a49.42,49.42,0,0,0-17.78,1.89l-2.37.91a35.41,35.41,0,0,0-7.72,3.53c5.91,1,9.37,4.52,11.63,9.55.3.67.28,1.31-.5,1.57s-1.11-.09-1.35-.8a12.63,12.63,0,0,0-3.22-4.85c-2-1.94-4.15-3.52-7.16-3.27-.7.06-1-.51-1.18-1.12a40,40,0,0,0-8.29,6.92ZM971,494.39h-.06c0-1.15,0-2.31,0-3.46a1.09,1.09,0,0,0-1-1.11,1.17,1.17,0,0,0-1.28,1,5.7,5.7,0,0,0-.15,1.3c0,1.59.05,3.19,0,4.78,0,.91.25,1.08,1.12,1.13,1.21.07,1.64-.29,1.47-1.5A15.63,15.63,0,0,1,971,494.39Zm-3.52-.11h0c0-1,0-2.07,0-3.11,0-.76-.32-1.36-1.18-1.34a1.22,1.22,0,0,0-1.22,1.35c0,2.07,0,4.15,0,6.22,0,.27,0,.51.38.6,1.5.37,2.06,0,2.06-1.57Q967.48,495.36,967.48,494.28Zm-3.36.07c0-1,0-2,0-3,0-.78-.2-1.51-1.13-1.53s-1.3.66-1.3,1.52c0,2,0,3.91,0,5.86,0,1.06.65.8,1.17.77s1.38.43,1.3-.76C964.07,496.27,964.12,495.31,964.12,494.35Z" transform="translate(-884.13 -393.1)"/><path class="cls-1" d="M1020.65,439.85l-3.47,1.85c-.44.24-.81.37-.62,1.14s-.93.86-1.44,1.27-.67-.14-.85-.45c-.65-1.14-1.29-2.29-1.92-3.45-.17-.3-.45-.7.11-.85s1.19-1.33,1.9-.51.94.56,1.57.2q2.79-1.62,5.64-3.14c.54-.29.8-.56.54-1.19-.54-1.31.84-1.06,1.32-1.5s.71.22,1,.53c1.73,2.06,1.72,4.05.14,6.29a52.11,52.11,0,0,0-3.08,5.75l4.65-2.55c.2-.11.5-.24.37-.53-.64-1.49.89-1.26,1.43-1.78.33-.32.55.11.7.38.66,1.18,1.31,2.37,2,3.56.2.35.49.79-.12.95s-1.16,1.37-1.9.46c-.57-.71-.95-.53-1.56-.18-2.6,1.48-5.23,2.89-7.82,4.38-.67.39-.93.28-1.38-.37a3.33,3.33,0,0,1-.05-4.27c1.21-1.81,2.1-3.84,3.13-5.78l0-.29Z" transform="translate(-884.13 -393.1)"/><path class="cls-1" d="M921.86,422.11c-.43.19-.76.76-1.38.06-1.12-1.28-1.18-1.21.09-2.4.87-.82,1.75-1.64,2.58-2.5.38-.39.64-.38.93,0,.46.65,1.67,1.1.51,2.16-.37.34.07.56.27.77,1.63,1.7,3.28,3.38,4.89,5.1.4.42.67.41,1.09.06,1-.85,1.21.39,1.73.74.68.46.22.84-.17,1.21-1,.94-1.95,1.89-2.94,2.82-.22.21-.45.75-.84.34s-1.57-1-1.21-1.56c.63-1-.13-1.26-.51-1.82-.71-1-1.3-1-2.06,0a16.28,16.28,0,0,1-2,1.91c-.39.35-.42.59,0,.94s.77.81,1.17,1.2c.16.16.32.4.6.21,1.26-.88,1.46.58,2.12,1,.35.22,0,.49-.19.67-1.11,1.09-2.24,2.16-3.35,3.26-.32.32-.58.4-.88,0-.51-.66-1.77-1.12-.56-2.23.29-.26,0-.5-.21-.7-1.67-1.72-3.34-3.44-5-5.17-.33-.34-.6-.43-1-.09-1.13.93-1.36-.44-1.92-.85-.79-.58.12-.84.39-1.13.91-1,1.86-1.86,2.83-2.76.22-.21.47-.73.86-.35s1.53,1.05,1.2,1.58c-.66,1,.16,1.28.55,1.82.7,1,1.33,1,2.07,0,.35-.48.89-.81,1.27-1.27s1.18-.69.9-1.24a8.06,8.06,0,0,0-1.6-1.75S922,422.13,921.86,422.11Z" transform="translate(-884.13 -393.1)"/><path class="cls-1" d="M987.49,409.11c-.28,1.82-.36,3.93-2.58,5-.16.07-.47.19-.35.4.55.9.08,2.25,1.41,2.82,1.1.47.09,1.31.12,2s-.48.44-.88.35c-1-.23-2-.5-3-.65s-1-.57-.77-1.31a6.42,6.42,0,0,0,.29-1.64c0-1.65-.62-2.25-2.26-2.28-.37,0-.52.12-.54.44,0,.5-.6,1.08.07,1.5,1.06.67.18,1.44.09,2.1s-.79.27-1.2.19c-1.21-.23-2.41-.54-3.61-.82-.36-.08-1,0-.73-.63s-.18-1.76.9-1.77c.88,0,1-.39,1.18-1.07.44-2.07.91-4.13,1.39-6.18.15-.64.16-1.06-.62-1.37-1.16-.45-.1-1.27-.13-1.92s.49-.49.94-.39c2.29.53,4.6,1,6.88,1.56S987.46,407.1,987.49,409.11Zm-5.09,2.31c1.27,0,1.81-.6,1.87-2s-1-1.81-3.33-1.89c-1.38,0-1.21,1.93-1.11,2.75C980,411.63,981.66,410.94,982.4,411.42Z" transform="translate(-884.13 -393.1)"/><path class="cls-3" d="M897.5,454c4.14,1.56,8,3.14,10.68,6.6,1.86,2.42,2,5.22,1.17,8.1a.85.85,0,0,1-1,.68c-3-.12-5.71-.93-7.53-3.49C898.37,462.38,897.86,458.31,897.5,454Z" transform="translate(-884.13 -393.1)"/><path class="cls-3" d="M1036,454c-.65,5-.89,9.88-4.87,13.4a9.31,9.31,0,0,1-6,2,.9.9,0,0,1-1-.76c-.86-3.16-.56-6.12,1.69-8.64C1028.44,456.94,1032,455.43,1036,454Z" transform="translate(-884.13 -393.1)"/><path class="cls-1" d="M966.18,409.68c1,.14,2.4-.59,2.9.25,1,1.7.24,5.31-1.15,6.2a9.18,9.18,0,0,1-8.37.67,3.31,3.31,0,0,1-1.93-2.73,23.19,23.19,0,0,1-.32-6.08c.22-2.89,2-4.52,4.9-4.74a33.21,33.21,0,0,1,5.49.27c.55,0,.89.24.84.89a15.29,15.29,0,0,0,.06,1.55c.08,2.08.07,2.05-2,2-.56,0-.83-.17-.85-.71,0-1.08-.69-1.29-1.61-1.17-.39.05-.8,0-1.2,0a2.44,2.44,0,0,0-2.41,2.71c0,1.28.12,2.55.2,3.83a1.56,1.56,0,0,0,.89,1.46,5.35,5.35,0,0,0,4-.11,1.06,1.06,0,0,0,.66-1.28c-.13-.56-.67-.25-1-.34a3.56,3.56,0,0,0-1.19-.06c-.87.08-1.12-.24-1.15-1.14s.13-1.57,1.31-1.45A12.9,12.9,0,0,0,966.18,409.68Z" transform="translate(-884.13 -393.1)"/><path class="cls-1" d="M937,415.31c.57-.27,1.21-.51,1.79-.86s1-.27,1.28.39c.84,1.74.86,1.71-.86,2.6-.4.21-1.19.28-1.1.74a8.32,8.32,0,0,0,1,2.15c0,.05.3,0,.42,0,.94-.43,1.87-.89,2.82-1.32.44-.2.42-.51.27-.88-.49-1.18.5-1.32,1.18-1.61.9-.39.74.57,1.06.91a2.49,2.49,0,0,1,.3.65c1,2.08,1,2.08-1,3-2.37,1.13-4.74,2.28-7.12,3.4-.4.19-1,.75-1.21-.15-.16-.63-1.39-1.24-.12-2,.46-.26.43-.55.21-1-1-2.11-2-4.24-3.06-6.36-.15-.32-.23-.69-.75-.55-.34.09-.75.52-1.05,0a9,9,0,0,1-.75-1.62c-.13-.36.27-.43.5-.54,2.91-1.4,5.83-2.78,8.73-4.2.52-.25.78-.18,1,.37a9.76,9.76,0,0,0,.94,1.93c.68,1,.41,1.48-.65,1.9a.78.78,0,0,1-1.16-.38c-.36-.62-.79-.66-1.37-.28-.36.24-.79.37-1.17.59s-1.37.36-1.35.81a6.15,6.15,0,0,0,.85,2.06A.32.32,0,0,0,937,415.31Z" transform="translate(-884.13 -393.1)"/><path class="cls-1" d="M990.27,419c1.35.91,1.47-.36,1.85-1,1-1.72,1.93-3.49,2.92-5.22.28-.48.38-.81-.17-1.19-1.19-.81.13-1.34.31-2,.22-.78.75-.27,1.13-.06,2.73,1.5,5.44,3,8.17,4.51.58.32.72.61.34,1.18a11.42,11.42,0,0,0-1.1,2c-.4,1-.91.93-1.7.43-.53-.34-.77-.63-.49-1.22s.05-1-.57-1.27c-.4-.16-.76-.44-1.16-.63s-1.1-.92-1.44-.64a6.49,6.49,0,0,0-1.18,1.91c-.18.32.1.42.28.54s.62.35.94.53c1.45.81,1.41.79.65,2.29-.4.79-.8,1.15-1.58.47a1.15,1.15,0,0,0-.21-.12c-1.76-1-1.74-1-2.66.86-.28.54-.13.77.33,1s1.14.58,1.68.92c.71.46,1.29.74,2-.15s1.17.15,1.72.36.21.65,0,1c-.57,1-.82,2.43-1.74,2.74s-1.86-.82-2.8-1.33c-2.07-1.12-4.12-2.27-6.17-3.42-.33-.18-.85-.31-.5-.86S989.58,419.32,990.27,419Z" transform="translate(-884.13 -393.1)"/><path class="cls-1" d="M1010.82,430.47a14.85,14.85,0,0,0-1.1-1.37c-.28-.28-.55-.95-1-.66a8.22,8.22,0,0,0-1.66,1.69c-.15.18.21.38.36.55.47.49,1,.93,1.43,1.45s1,.93,1.85.31,1.07.47,1.57.79.08.67-.18.93c-.64.66-1.33,1.27-1.94,2-.44.5-.71.39-1.13,0-2.24-2.28-4.52-4.53-6.77-6.79-.24-.24-.82-.53-.21-.9s.73-1.6,1.71-1a.91.91,0,0,0,1.38-.19c1.56-1.61,3.15-3.17,4.74-4.76.3-.3.71-.55.25-1.07-.2-.23-.68-.48-.32-.89a10.05,10.05,0,0,1,1.38-1.33c.19-.15.4.17.56.33,2.31,2.27,4.59,4.56,6.92,6.81.47.45.43.74,0,1.15-.68.62-1.3,1.3-2,1.94-.23.22-.48.71-.84.22s-1.41-.78-.92-1.41c.92-1.21.14-1.76-.6-2.43l-.17-.17c-1.51-1.5-1.54-1.49-2.92.16-.25.29-.36.48,0,.77a6.79,6.79,0,0,1,.76.77c.35.42,1.18.8,1,1.22a7.31,7.31,0,0,1-1.6,1.75A2.74,2.74,0,0,1,1010.82,430.47Z" transform="translate(-884.13 -393.1)"/><path class="cls-1" d="M910.7,507.88c.67-.36,1.33-.71,2-1.08.27-.15.57-.25.54-.69-.07-1.08,1-.93,1.56-1.35.29-.22.42.26.54.47.43.76.89,1.52,1.25,2.32.17.37.87.86.26,1.19s-1.15,1.4-2,.38c-.35-.41-.65-.06-.93.09-1.9,1-3.8,2-5.66,3.11-.68.4-.94.26-1.37-.38a2.82,2.82,0,0,1-.05-3.66,16.07,16.07,0,0,0,1.81-3.59c-.75.66-2.23.26-2.31,1.88,0,.49-1,.78-1.57.95s-.51-.51-.7-.83a17.13,17.13,0,0,1-1.09-2c-.16-.35-.87-.83-.12-1.16.57-.25,1.1-1.33,1.91-.35.26.31.51.15.74,0,1.4-.76,2.79-1.55,4.2-2.31a.51.51,0,0,0,.27-.77c-.22-.45.07-.61.41-.83,1.31-.82,1.2-.76,2,.45a3.35,3.35,0,0,1,0,4.4,27.87,27.87,0,0,0-1.91,3.54Z" transform="translate(-884.13 -393.1)"/><path class="cls-1" d="M1018,514c.54.4,1.08.81,1.64,1.19.21.14.4.45.73.22,1-.68,1.37.34,1.84.72s-.26.84-.46,1.24a11.33,11.33,0,0,1-1,1.37c-.91,1.28-1.23,1.31-2.29.19-.1-.11-.27-.31-.24-.36.65-1.12-.43-1.31-1-1.74-.77-.63-1.61-1.18-2.42-1.75-.52-.37-.9-.86-1.71-.24-.5.38-1.05-.46-1.55-.8s0-.66.17-1a3.78,3.78,0,0,1,4.7-2.29,28.38,28.38,0,0,0,4,.22l-2.38-1.75a.58.58,0,0,0-.74-.07c-.85.47-1.24-.41-1.74-.78s.13-.74.32-1a16.57,16.57,0,0,1,1.4-1.94c.24-.28.35-1.06.88-.66s1.74.46,1.23,1.65c-.25.6.28.68.55.88,1.73,1.28,3.47,2.56,5.25,3.77.64.43.53.7.21,1.31a2.89,2.89,0,0,1-3.5,1.65,30.33,30.33,0,0,0-3.89-.24Z" transform="translate(-884.13 -393.1)"/><path class="cls-1" d="M919.34,442.21c-.14.28-.23.46-.32.63l-2.29,4.2c-.21.39-.43.91-.95.44s-1.77-.26-1.32-1.43c.29-.75.13-1-.53-1.37-1.91-1-3.8-2-5.67-3.1-.58-.34-1-.33-1.18.33s-1.12,1-.07,1.66c.29.17.89.28.7.81a9.63,9.63,0,0,1-.93,1.65s-.3,0-.42-.08c-1-.55-2-1.12-3.05-1.66-.44-.23-.43-.45-.21-.85q2.77-5,5.51-10.08c.26-.49.51-.49.94-.23.68.41,1.4.77,2.1,1.15,1.31.71,1.27.69.55,2-.34.62-.68.69-1.22.37-1.24-.74-1.21.51-1.59,1-.55.76.26.83.63,1,1.77,1,3.57,1.94,5.34,3,.66.38,1.2.63,1.61-.28a.53.53,0,0,1,.88-.21C918.34,441.57,919,441.67,919.34,442.21Z" transform="translate(-884.13 -393.1)"/><path class="cls-1" d="M1024.88,495.24a13.16,13.16,0,0,1,5.92,3.1c1,1,.79,2.29.25,3.47-.78,1.7-1.6,3.39-2.43,5.07-.13.25-.15.89-.67.58s-1.55-.24-1.49-1.09-.31-.9-.78-1.12l-3.24-1.55c-.59-.28-1-.73-1.73.07-.38.44-1.1-.31-1.66-.53s-.17-.59,0-.89c.81-1.69,1.61-3.39,2.47-5.05A3.35,3.35,0,0,1,1024.88,495.24Zm3.76,5.61a.77.77,0,0,0-.26-.65,9.42,9.42,0,0,0-3.82-1.88c-1.1-.24-1.3,1-1.63,1.76s.51.67.86.86a23.7,23.7,0,0,0,2.8,1.34c.42.17.88,1,1.38.2A3.3,3.3,0,0,0,1028.64,500.85Z" transform="translate(-884.13 -393.1)"/><path class="cls-1" d="M944.19,530.57c-.23,2.4-.45,4.63-.66,6.85,0,.38-.17.74.26,1.07a1.68,1.68,0,0,1-.07,2.28c-.22.18-.37,0-.53,0-1.36-.58-2.71-1.15-4.07-1.75-.24-.1-.63-.23-.41-.58.34-.53.18-1.41,1.05-1.56.26,0,.57.13.61-.33s-.23-.47-.48-.58a10.16,10.16,0,0,0-1.1-.47c-.31-.1-.61-.49-1-.09s.18.53.22.78a2.67,2.67,0,0,1-.63,1.74c-.34.53-.78,0-1.14-.16a12.14,12.14,0,0,1-2.08-.91c-.42-.23-1.33-.18-1.11-.87s.13-2,1.56-1.49c.38.12.56-.24.76-.47,1-1.18,2-2.37,3.05-3.54.29-.34.4-.49,0-.94-.53-.63.22-1.21.45-1.78s.69-.1,1,0c1.11.45,2.18,1,3.3,1.4C944,529.46,944.43,529.86,944.19,530.57Zm-3.13.63-1.58,1.91c.46.25,1,.7,1.21.5C941.21,533,941,532.25,941.07,531.2Z" transform="translate(-884.13 -393.1)"/><path class="cls-1" d="M1010.53,528.21a3.77,3.77,0,0,1-2.4-1.19c-.79-.79-1.51-1.65-2.32-2.42-.52-.5-.77-1.53-2-.88-.39.21-.95-.72-1.32-1.22s.22-.59.44-.81c.84-.8,1.69-1.58,2.55-2.36.27-.24.57-.78.93-.2s1.4.72.87,1.56c-.36.56-.19.84.16,1.21.8.84,1.57,1.71,2.37,2.55s1.38.93,2.24.16a1.33,1.33,0,0,0,0-2.17l-2.52-2.73c-.24-.26-.47-.59-.89-.27s-.47,0-.68-.2c-1.23-1.11-1.23-1.1,0-2.22a9.41,9.41,0,0,1,1.15-1c.41-.27.69-1.19,1.26-.69s1.56.78.91,1.86c-.23.39.22.54.41.75.9,1,1.86,2,2.73,3,1.59,1.87,1.51,3.43-.27,5.14C1013.14,527,1012.12,528.09,1010.53,528.21Z" transform="translate(-884.13 -393.1)"/><path class="cls-1" d="M972.43,541.06c.28-1.47.55-2.93.86-4.39.07-.35,0-.56-.34-.59s-.55-.3-.61-.71c-.21-1.52-.21-1.53,1.39-1.61.92,0,1.83-.15,2.75-.19.3,0,.86-.26.82.33s.61,1.47-.23,1.82c-.67.28-.75.74-.88,1.26-.53,2.17-1,4.34-1.53,6.52-.13.59-.35.88-1,.88-1.15,0-2.55.63-3.38,0s-.91-2-1.32-3c-.49-1.26-1-2.53-1.46-3.8-.21-.52-.28-1-1.05-1.26s-.33-1.11-.38-1.71.47-.41.78-.43c1.15-.1,2.31-.19,3.46-.22.35,0,1-.36,1,.38s.77,1.43-.36,1.8c-.29.09-.42.23-.32.51.51,1.48,1,3,1.54,4.43Z" transform="translate(-884.13 -393.1)"/><path class="cls-1" d="M986.42,537.45c-.17.66-.78.59-1.22.68-1.08.22-.8.84-.52,1.49.06.14.13.29.33.23.5-.13,1-.27,1.51-.38s.78-.47.84-1.08.88-.54,1.35-.72.5.34.6.65c.85,2.63.85,2.62-1.8,3.37l-5.17,1.46c-.34.1-.85.46-.94-.21s-.85-1.28-.08-1.78c.53-.35.43-.62.3-1.06-.36-1.22-.67-2.46-1-3.68-.18-.59-.14-1.27-1.2-1.27-.62,0-.56-1-.69-1.62s.42-.48.73-.57c2.29-.67,4.6-1.29,6.89-2,.7-.21.94,0,1.06.65a11.24,11.24,0,0,1,.38,1.38c0,.41.67,1,0,1.22s-1.22.85-2-.12c-.61-.8-1.52.08-2.27.24-.55.12-.15.65-.1,1,.08.54.33.62.83.47s1.14-.61,1.44-.26A5.77,5.77,0,0,1,986.42,537.45Z" transform="translate(-884.13 -393.1)"/><path class="cls-1" d="M999.21,536.77c-.42,0-.5-.38-.6-.63-.17-.43-1-.78-.45-1.29s.25-.88,0-1.31l-2-3.24c-.31-.49-.45-1-1.33-.72-.73.2-.86-.87-1.21-1.39s.28-.56.51-.71c2-1.32,4.13-2.57,6.16-3.91.61-.4.87-.28,1.16.3.21.43.56.79.74,1.23s1,.75.32,1.26c-.49.37-.91,1-1.84.39s-1.62.44-2.18,1,.34,1,.58,1.45c.16.31.4.11.6,0a7.54,7.54,0,0,0,1.11-.71c.75-.66,1.09-.33,1.62.38.74,1,.51,1.49-.49,1.92a4.2,4.2,0,0,0-.61.38c-.35.23-.8.37-.43,1s.64.6,1.15.28c1.09-.68,1.05.52,1.47.93s.1.8-.34,1.07l-3.35,2.09Z" transform="translate(-884.13 -393.1)"/><path class="cls-1" d="M947.88,541.3c.33-.4-.19-1.61,1.14-1.37.28,0,.36-.24.42-.49.37-1.55.72-3.1,1.12-4.64.11-.42,0-.56-.41-.66s-.73-.24-.89.25c-.4,1.24-1.22.5-1.84.36-.86-.2-.31-.83-.22-1.24.55-2.41.56-2.41,2.93-1.85s4.49,1.1,6.74,1.6c.63.14.8.34.58,1s-.19,1.11-.39,1.62.08,1.27-.77,1c-.59-.17-1.71.18-1.48-1.15.1-.6-.48-.53-.82-.64-.53-.16-.44.31-.51.58-.36,1.47-.7,2.94-1.08,4.41-.11.42-.06.7.39.81s.47.48.42.92c-.14,1.14-.55,1.6-1.77,1.13a20,20,0,0,0-3-.73C948,542.08,947.63,542,947.88,541.3Z" transform="translate(-884.13 -393.1)"/><path class="cls-1" d="M923.56,519.31c-.41-.3-.64-1-1.26-.51-1,.86-1.33-.23-1.81-.62-.69-.58.17-.87.43-1.18,1.63-1.9,1.64-1.88,3.47-.22,1.63,1.47,3.24,3,4.92,4.37.76.63.72,1.07,0,1.65a6.82,6.82,0,0,0-.73.79c-1,1.15-1,1.12-2,.1-.38-.37-.39-.63-.1-1,.41-.51,0-.79-.32-1.07s-.63.13-.83.35c-1,1.06-1.93,2.13-2.88,3.2-.2.22-.48.38-.26.81a1.74,1.74,0,0,1-.8,2.05c-.38.18-.49-.15-.67-.3-.93-.81-1.85-1.64-2.77-2.47-.26-.24-.83-.48-.28-.89s.55-1.53,1.58-1c.33.18.53.22.8-.09,1-1.21,2.12-2.39,3.18-3.58C923.34,519.62,923.42,519.5,923.56,519.31Z" transform="translate(-884.13 -393.1)"/><path class="cls-3" d="M1029.83,485.5a21.78,21.78,0,0,1-.68,4.43c-.11.44-.2.86-.74.39-2.09-1.82-4.12-3.68-4.85-6.51a6.09,6.09,0,0,1,1-4.77c.34-.57.73-.44,1.21-.26C1028.49,479.78,1029.88,482,1029.83,485.5Z" transform="translate(-884.13 -393.1)"/><path class="cls-3" d="M903.6,485.95c0-4,1.3-6.08,4-7.16a.92.92,0,0,1,1.36.42,6,6,0,0,1,.38,6.14,16.73,16.73,0,0,1-4.17,4.88c-.6.53-.77.21-.91-.38A22.85,22.85,0,0,1,903.6,485.95Z" transform="translate(-884.13 -393.1)"/><path class="cls-1" d="M911.1,496.7c0,.49-.45.53-.76.58-.47.08-1,.83-1.42,0-.28-.52-.6-.39-1-.25l-4.26,1.58c-.31.11-.67.21-.51.64.23.63-.22.69-.61.91-1,.55-1.54.34-1.81-.8-.21-.85-.62-1.64-.86-2.48-.1-.35-.68-.9-.07-1.1s1.31-1.21,2-.16c.3.43.63.18.95.07l3.59-1.31c.57-.21,1.13-.26,1.12-1.21,0-.78,1-.66,1.63-.89s.5.41.61.7C910.23,494.21,910.65,495.45,911.1,496.7Z" transform="translate(-884.13 -393.1)"/><path class="cls-1" d="M960,536.91c0-.51.09-.9-.59-1.2s-.22-1.19-.21-1.81.52-.37.84-.34c1.15.09,2.3.18,3.45.32.34,0,.94-.09.8.55s.32,1.51-.61,1.69c-.64.13-.63.48-.67.91-.12,1.31-.25,2.62-.36,3.93,0,.56-.16,1,.64,1.39s.13,1.23.07,1.86-.57.26-.88.23q-1.67-.12-3.33-.32c-.3,0-.85.18-.78-.42s-.26-1.56.52-1.75.65-.55.7-1C959.73,539.61,959.85,538.26,960,536.91Z" transform="translate(-884.13 -393.1)"/><path class="cls-1" d="M921.41,513.71c0,.58-1.55,1.47-1.93,1.16s-.68-.16-1,.11q-1.71,1.41-3.44,2.8c-.34.27-.62.52-.26,1s0,.56-.23.8c-1.13,1.09-1.15,1.1-2.14-.11-.61-.74-1.22-1.48-1.81-2.24-.19-.25-.67-.57-.18-.86s.85-1.31,1.61-.86c.58.35.83.17,1.22-.15.92-.77,1.87-1.51,2.78-2.28.5-.42,1.21-.64.78-1.67-.23-.56.75-.91,1.22-1.29s.61.19.82.43c.75.88,1.47,1.79,2.2,2.69C921.2,513.38,921.32,513.58,921.41,513.71Z" transform="translate(-884.13 -393.1)"/><path class="cls-1" d="M927.14,529.89c.86.58,1-.22,1.34-.66.61-.89,1.2-1.79,1.76-2.71.34-.57,1.06-1,.26-1.92-.37-.42.45-1.08.78-1.58s.7,0,1,.2c.89.53,1.77,1.08,2.6,1.69.29.21,1.07.32.7.84s-.31,1.76-1.54,1.33a.52.52,0,0,0-.69.28l-2.67,4.11c-.11.17-.26.39-.07.53,1.07.79,0,1.27-.25,1.86s-.52.46-.94.17c-.95-.66-1.94-1.26-2.89-1.91-.29-.2-.89-.31-.54-.85S926.44,530.09,927.14,529.89Z" transform="translate(-884.13 -393.1)"/><path class="cls-2" d="M1004.5,503.24a34.45,34.45,0,0,1-5.36,5.8,6,6,0,0,0-4.34-6c-1-.29-1.19.1-1.1,1a6,6,0,0,0,5.19,5.33c-2.05,2.29-2.75,2.7-6.17,1.46a9.14,9.14,0,0,1-4.8-4.47c-.37-.67-.72-1.38-1.61-.87s-.5,1.23-.14,1.88a11.72,11.72,0,0,0,7.89,6,23.89,23.89,0,0,1-4.52,2.7,5.81,5.81,0,0,0-5.34-5.46c-.64,0-1,.08-.78.87a5.9,5.9,0,0,0,4.34,4.6c.44.13,1,0,1.33.41A51,51,0,0,1,976,521.18c-1,.21-1.33.12-1.38-1-.21-5.15-.43-10.3-.46-15.46,0-.56,0-1,.73-1.09,4.45-.77,8.05-3.17,11.4-6A43.33,43.33,0,0,0,994,488.8a1.75,1.75,0,0,1,1.92-1,14.79,14.79,0,0,0,4.3-.11c4.37-.72,6.34-4,7.07-7.88.11-.6,0-1.16-.73-1.29s-1.1.3-1.23,1c-.07.35-.16.7-.26,1-1.22,4.24-4.61,6.18-9,5.14.83-1.72,1.72-3.4,2.46-5.16a31.36,31.36,0,0,0,2.48-17.66,3,3,0,0,0-.35-1.13.87.87,0,0,0-1.18-.27,1.06,1.06,0,0,0-.53,1.32,25.29,25.29,0,0,1-.11,10A41.41,41.41,0,0,1,991,489.59c-.37.49-.6.47-1,.11a6,6,0,0,1-2-5.16,16.77,16.77,0,0,1,1.27-5.46c.29-.72.49-1.47-.45-1.8s-1.22.44-1.47,1.14c-1,2.69-1.73,5.41-1.21,8.32a7.41,7.41,0,0,0,2.47,4.4c.3.26.81.45.3,1-3.74,4.08-7.81,7.68-13.29,9.25-1.43.41-1.45.38-1.44-1.09,0-4,0-8.08.1-12.12,0-.56-.37-1.41.76-1.54.31,0,.15-.56.17-.87s-.19-.47-.52-.48-.77.16-.81-.42c-.17-2.57-.49-5.11.49-7.65,1.78-4.61,5-7.23,9.95-7.49.7,0,1.46,0,1.42-1s-.85-1-1.59-1a12.07,12.07,0,0,0-5.51,1.42c-.74.42-1,.23-1.31-.46-1.38-3.19-1.53-6.26.82-9.11.44-.53.61-1.09.05-1.59s-1.18-.24-1.64.31a9.74,9.74,0,0,0-1.72,9.47c.31,1.05,1.24,2.12,1.09,3.05s-1.33,1.61-1.91,2.53a18.59,18.59,0,0,0-2.55,7.73c-.81-2.14-1.51-4-2.19-5.77a49,49,0,0,0-1.82-4.81c-.86-1.72-.83-3.56-1.09-5.36,0-.25.07-.58-.48-.87-.2,5.54-2.67,10.36-4.21,15.47-.3-2.41-.44-4.8-.88-7.16a21.91,21.91,0,0,0-3-7.64,16.28,16.28,0,0,1-1.86-6.39c-1-7.14,2-12.3,7.91-16,.7-.43,1.74-.81,1.11-1.86s-1.47-.29-2.15.13c-4.26,2.64-7.47,6.1-8.64,11.14a20.13,20.13,0,0,0,.2,9.14c.05.23.08.46.15.81a15.49,15.49,0,0,0-4-1.49c-.35-.07-.71-.14-1.06-.17a.88.88,0,0,0-1,.75.9.9,0,0,0,.74,1.18c7.08,1.2,9,6.42,9.92,12.52a17.47,17.47,0,0,1-.35,7.81,6.69,6.69,0,0,0-.11,1.54c0,.65.3,1.54-1,1.41-.42,0-.31.38-.32.63s-.06.7.42.7.58.25.58.68c0,3.59,0,7.19,0,10.8-6.21-1.63-10.06-9.33-7.62-15.13.11-.26.23-.51.36-.76.32-.63.46-1.29-.29-1.64s-1.25.13-1.57.83a13.77,13.77,0,0,0-1.32,4.94c0,.46-.07.92-.11,1.53a13.53,13.53,0,0,1-3.09-3.29c-4.08-5.68-5.38-12.1-5-19a36.65,36.65,0,0,1,1.24-7.55c.19-.71.26-1.42-.65-1.63s-1.14.49-1.31,1.18a37.21,37.21,0,0,0-1.3,10.07c0,1-.34,1.3-1.3,1.3-3.16,0-5.45-1.53-7.32-3.91-.25-.31-.45-.66-.66-1-.34-.54-.8-.82-1.41-.47a1,1,0,0,0-.31,1.54,11.62,11.62,0,0,0,7,5.52,6,6,0,0,0,2.72.27c1.18-.22,1.46.23,1.58,1.32a27.87,27.87,0,0,0,4.7,12.92,28.52,28.52,0,0,0,3.51,4.09,5.1,5.1,0,0,1-6.89-2.24c-.35-.73-.73-1.37-1.59-1s-.52,1.22-.21,1.88c1.59,3.4,5.7,4.8,9.68,3.2,1-.4,1.35-.24,1.78.71a16,16,0,0,0,8.45,8.1,1.42,1.42,0,0,1,1,1.61c-.18,6.11-.33,12.22-.72,18.32,0,.66,0,1.15-1,.94a47.54,47.54,0,0,1-17.81-7.93c-.05,0-.07-.13-.13-.26a18.14,18.14,0,0,0,3.58-.94,9.4,9.4,0,0,0,4.73-4.4c.32-.62.48-1.26-.25-1.67s-1.15,0-1.52.66a8.52,8.52,0,0,1-9,4.22,3.18,3.18,0,0,1-1.91-1.47c.35,0,.71.06,1.06.1a6,6,0,0,0,6-3c.59-1.11.46-1.33-.83-1.39a5.91,5.91,0,0,0-6.23,4.34,26.68,26.68,0,0,1-4-4.06,7.48,7.48,0,0,1,.84,0,8.57,8.57,0,0,0,6.67-2c.82-.66.71-1-.12-1.56a8.59,8.59,0,0,0-9.89.25,14.43,14.43,0,0,1-2.1-3.17,6,6,0,0,0,4.84-5.19c.11-1-.31-.92-.92-.78a5.82,5.82,0,0,0-4.68,4.53,35.12,35.12,0,0,1-3.34-7.11c.45.15.91.27,1.36.44a10.55,10.55,0,0,0,11.75-3c.72-.84.54-1.18-.36-1.63a10.44,10.44,0,0,0-13,2.94,25.28,25.28,0,0,1-1.62-6c2.35,1.36,4.69,1.61,7.07,0,.67-.44.65-.73,0-1.22a5.86,5.86,0,0,0-7.19,0,20.67,20.67,0,0,1-.63-5.28l1.62,1c.49.31.75.2,1-.37a7.34,7.34,0,0,0-2.15-7.67,13.24,13.24,0,0,1,.52-4.59,22,22,0,0,1,1.15-4.26,10.75,10.75,0,0,0,2.1,4.34c.47.52.73.54,1.17,0a7.85,7.85,0,0,0-.87-10.31,31.11,31.11,0,0,1,5.07-8.53,8.66,8.66,0,0,1-.16,1.18c-.19.71.18.82.75.82a7.81,7.81,0,0,0,7.4-6.16c.16-.73,0-.94-.75-1-1.13-.06-2.11.62-3.22.5a40,40,0,0,1,8.29-6.92c.22.61.48,1.18,1.18,1.12,3-.25,5.18,1.33,7.16,3.27a12.63,12.63,0,0,1,3.22,4.85c.24.7.69,1,1.35.8s.8-.9.5-1.57c-2.26-5-5.72-8.6-11.63-9.55a35.41,35.41,0,0,1,7.72-3.53,7.19,7.19,0,0,0,5.88,5.58c.69.14,1.62.52,2,0s-.14-1.42-.43-2.1c-1-2.3-2.92-3.46-5.11-4.34A49.42,49.42,0,0,1,970.55,427a6.55,6.55,0,0,0-3.58,3c-.27.6-.84,1.35-.35,1.86s1.28.15,1.94-.05a5.75,5.75,0,0,0,3.93-4.58,45.85,45.85,0,0,1,9.26,2.15c-3.71,5.08-3.12,10.4-1,15.83a5.29,5.29,0,0,0,.47.83c.38.6.85,1,1.57.56s.49-1,.15-1.64a15.06,15.06,0,0,1-1.53-10.55,6.35,6.35,0,0,1,1.26-2.82,2.12,2.12,0,0,0,.62-1.68l2.87,1.15c-.15.46-.63.45-1,.63a5.46,5.46,0,0,0-2.83,3.24c-.38,1.16-.19,1.37,1,1.22a5.76,5.76,0,0,0,3.34-1.68c.71-.69.89-1.68,1.54-2.38a17,17,0,0,1,3.25,2,5.9,5.9,0,0,0,1.55,7c.91.73,1.08.68,1.46-.4a7,7,0,0,0-.45-5,21.58,21.58,0,0,1,4.47,3.63,5.8,5.8,0,0,0,.63,5.88c.41.61.72.75,1.21.05a6.5,6.5,0,0,0,1.16-3,17.68,17.68,0,0,1,2.85,3.34,6,6,0,0,0-2.61,5.89c.09.75.18,1.79.83,2s1.23-.71,1.69-1.29c1.26-1.59,1.3-3.43,1.06-5.33a34.19,34.19,0,0,1,3.31,5.38,9.26,9.26,0,0,0-6.82,7.12c-.19.75,0,1.12.83,1.08a9.19,9.19,0,0,0,7.76-4.17,18.18,18.18,0,0,1,2.16,6.58c-.45,0-.7-.33-1-.52a8.55,8.55,0,0,0-7.7-.45c-.55.23-.86.43-.42,1.12a8.51,8.51,0,0,0,9.92,3.17,8.72,8.72,0,0,1,.51,3.18,8.43,8.43,0,0,0-5.81,7.32c-.17,1.4,0,1.52,1.38,1.22a10.78,10.78,0,0,0,4.78-2.79l-.26,4a6,6,0,0,0-5.5,1.57c-.59.55-.49.85.19,1.21a6.71,6.71,0,0,0,4.87.41,26,26,0,0,1-.94,4.32,6.43,6.43,0,0,0-5.85-.34c-.88.41-.82.72-.21,1.34a6.62,6.62,0,0,0,5.27,1.8c-.52,1.17-.67,2.5-1.55,3.51-1.92-3.27-7.12-5.46-11.74-3.83-.63.22-.5.53-.29,1a10.37,10.37,0,0,0,10.79,5.67,19,19,0,0,1-3.11,5.29,5.61,5.61,0,0,0-3.15-4.34c-1.31-.7-1.43-.59-1.47.86a5.52,5.52,0,0,0,1.56,4.11A22.14,22.14,0,0,0,1004.5,503.24Zm-24-45.75a10.76,10.76,0,0,0,10.11-8.81c.21-1-.13-1.13-1-1.13A10.84,10.84,0,0,0,979.18,456C978.83,457.59,978.84,457.59,980.49,457.49Zm-28.17-6.83a11.46,11.46,0,0,0-3.38-8.76c-.67-.64-1.05-.74-1.6.18a10.88,10.88,0,0,0,2,13.57c.66.59,1,.42,1.35-.24A10.66,10.66,0,0,0,952.32,450.66ZM927.39,457a11.34,11.34,0,0,0,2.51,6.93c.53.67.87.7,1.44,0a11,11,0,0,0-.1-13.79c-.61-.69-.93-.58-1.43.07A11.35,11.35,0,0,0,927.39,457Zm39.51-9.11A10.81,10.81,0,0,0,956.83,457c-.11,1,.25,1.24,1.16,1.16a10.85,10.85,0,0,0,9.86-9C968,448.21,968,447.58,966.9,447.84Zm-18.09,59.27a10.35,10.35,0,0,0,7.52-5.18c.39-.67-.1-.82-.56-1a10.53,10.53,0,0,0-12.71,4.42c-.4.69-.27.92.42,1.19s.9-.17,1.16-.63a1.75,1.75,0,0,1,2-1,1.61,1.61,0,0,1,1.43,1.54C948.1,507,948.27,507.22,948.81,507.11ZM954.45,472a9.83,9.83,0,0,0-2-5.64c-.45-.6-.75-.5-1.19,0A9.28,9.28,0,0,0,951,478c.45.54.72.56,1.18,0A9.69,9.69,0,0,0,954.45,472Zm39.63,23.41a8.66,8.66,0,0,0,4,7.06c.46.31.76.43,1.09-.24,1.74-3.55,0-9-3.46-10.8-.48-.25-.71-.2-.91.29A9.64,9.64,0,0,0,994.08,495.44Zm-18,14.77a8.52,8.52,0,0,0,4.41,7.56c.58.35.86.31,1.11-.38a8.85,8.85,0,0,0-4-10.4c-.73-.39-1-.19-1.15.49A8.57,8.57,0,0,0,976,510.21Zm-25.2,4.8a8.38,8.38,0,0,0,.38,2.72c.22.78.56.78,1.2.43a8.87,8.87,0,0,0,4-10.23c-.27-.83-.61-.83-1.25-.44A8.54,8.54,0,0,0,950.83,515Zm36.49-45.56a8.6,8.6,0,0,0,7.25,7.89c.49.05.92.13.93-.66a8.82,8.82,0,0,0-7-8.19C987.6,468.34,987.1,468.53,987.32,469.45Zm-42.75-18.54a8.62,8.62,0,0,0-4.59-7.47c-.62-.35-.88-.21-1.11.45A8.68,8.68,0,0,0,943.13,454c.58.27.86.19,1-.43A12.77,12.77,0,0,0,944.57,450.91Zm50.91,1.32a8.44,8.44,0,0,0,3.49,7c.35.27.64.53,1-.1,2-3.3.59-8.92-2.67-10.88-.52-.31-.78-.23-1,.28A8.33,8.33,0,0,0,995.48,452.23Zm-62.81,45.48c-.07,1.74,0,1.8,1.28,1.48a8.55,8.55,0,0,0,5.67-4.44c1.07-2,1-2.18-.77-3.49a1.27,1.27,0,0,1-.28-.22c-.44-.6-.91-.43-1.44-.12A8.56,8.56,0,0,0,932.67,497.71Zm41-65.51a8.29,8.29,0,0,0-7.88,6.58c-.14.75,0,1.09.86,1.06a8.44,8.44,0,0,0,7.87-6.52C974.75,432.42,974.55,432,973.69,432.2ZM977.35,498a8.17,8.17,0,0,0,7.59-6.21c.18-.85,0-1.25-1-1.2a8.26,8.26,0,0,0-7.66,6.14C976,498.07,976,498.07,977.35,498Zm-12.58-63.37A8.3,8.3,0,0,0,962,428.5c-.44-.39-.67-.37-1,.12-2,2.95-1.27,8.09,1.54,10.27.55.43.79.27,1.09-.25A9.36,9.36,0,0,0,964.77,434.65ZM970,446a8,8,0,0,0,5.67-2.17c.57-.5.68-.87-.05-1.37a8.25,8.25,0,0,0-10.14,1.12c-.47.5-.4.76.12,1.1A7.69,7.69,0,0,0,970,446Zm8,6.45a8.55,8.55,0,0,0-2.65-6.14c-.45-.38-.72-.48-1.11.11a8.24,8.24,0,0,0,1.59,10.26c.48.38.7.32,1-.18A8.43,8.43,0,0,0,978,452.4Zm-29.75,27.82a8.07,8.07,0,0,0-4.85-7.45c-1-.42-1.25-.14-1.37.8a8.16,8.16,0,0,0,4,8C947.93,482.64,948.24,482.46,948.24,480.23Zm34.58,21.3c-1.28.09-2.23,1.16-3.48,1.54-.64.2-.67.49-.28,1a9.44,9.44,0,0,0,5.28,3.48c.56.15,1.05.2.71-.71a1.71,1.71,0,0,1,1-2.28,1.82,1.82,0,0,1,2.42.94l.77,1.34c.31.54.74.38,1.13.17s.13-.63,0-.88A9.36,9.36,0,0,0,982.82,501.53Zm-1.2-40.74a7.05,7.05,0,0,0-3.46.87c-1.11.57-.9,1.69-1,2.63s.82.89,1.37,1a7.84,7.84,0,0,0,7.9-2.17c.42-.42.43-.64-.09-1A8.25,8.25,0,0,0,981.62,460.79Zm-35.72,38.69a7.38,7.38,0,0,0,5-1.67c.23-.18.7-.43.4-.73-.72-.72-1.08-1.92-2.17-2.13a7.78,7.78,0,0,0-7.42,2.32c-.54.54-.36.84.21,1.15A7.23,7.23,0,0,0,945.91,499.48Zm38.53-56.66a7.84,7.84,0,0,0,.67,3.13c.25.62.51.64,1,.28a7.75,7.75,0,0,0,2.55-9.18c-.33-.73-.64-.88-1.29-.35A7.63,7.63,0,0,0,984.44,442.82Zm-37.38,24.59a7.64,7.64,0,0,0-3.71-6.45c-.63-.39-.92-.41-1.14.4a7.46,7.46,0,0,0,1.62,7.35c.67.76,1.58,1.91,2.46,1.54S947,468.42,947.06,467.41Zm-13.19,14a8.25,8.25,0,0,0,4.18.94c.41,0,.8,0,.68-.66a8.7,8.7,0,0,0-9.05-7.08c-.28,0-.54,0-.59.43a2.59,2.59,0,0,0,2.53,2.86,9.83,9.83,0,0,0,1.3-.17,1.77,1.77,0,0,1,1.91.92,1.7,1.7,0,0,1-.16,2A5.84,5.84,0,0,1,933.87,481.37Zm51.33-1.89a7.25,7.25,0,0,0-4.54-6.7c-.8-.32-1.13-.2-1.22.71a7.38,7.38,0,0,0,3.84,7.14C985,481.54,985.21,481.41,985.2,479.48Zm-11.4-18.06a7.09,7.09,0,0,0-5.44-6.36c-.77-.15-.95.1-.95.85a7.06,7.06,0,0,0,5.16,6.47C973.55,462.65,973.8,462.25,973.81,461.42Zm-9.73,1.76c0-.25,0-.41,0-.57-.13-.85,0-2.06-.75-2.36s-1.43.67-2,1.23a6.86,6.86,0,0,0-2.05,3.57c-.22.95.63,1.49.84,2.28.11.38.33.73.44,1.11.21.71.52.62,1,.21A7.39,7.39,0,0,0,964.08,463.18ZM940.35,441.4a7,7,0,0,0,5.86-2.95c.27-.35.54-.64,0-1.06a4.29,4.29,0,0,0-5.31-.06,6.34,6.34,0,0,0-1.68,1.68c-.41.63-1.14,1.36-.84,2S939.64,441.36,940.35,441.4Zm-8.9,39.38a7.2,7.2,0,0,0,1.9-.26,1,1,0,0,0,.81-1.25c-.15-.7-.68-.81-1.29-.7-3.53.63-6.05-1.06-8.16-3.62-.47-.57-.83-1.33-1.68-.78s-.44,1.34,0,2A11.23,11.23,0,0,0,931.45,480.78Zm59.66-14.91a6.6,6.6,0,0,0,6.15-4.35c.27-.77.09-1-.68-1a6.58,6.58,0,0,0-6.49,3.82C989.47,465.7,989.6,465.89,991.11,465.88Zm-15.54,13.26a6.34,6.34,0,0,0,2.46,5.35c.51.42.76.36,1.06-.24a6.65,6.65,0,0,0-2-7.88c-.57-.4-.82-.23-1.06.34A5.58,5.58,0,0,0,975.56,479.14Zm27.64-8.05a6.58,6.58,0,0,0,2.75,5.41c.56.41.85.38,1.09-.33a6.43,6.43,0,0,0-1.49-6.86c-.4-.44-.94-1.07-1.44-1s-.6,1-.74,1.63C1003.28,470.36,1003.25,470.76,1003.2,471.08Zm-50.91,11.27c0,.48-.2,1.07.73.94a6.56,6.56,0,0,0,5.3-5.84c0-.75-.21-.88-.88-.78A6.4,6.4,0,0,0,952.29,482.35Zm21.43-12.07a6.15,6.15,0,0,0-4.56-5.76c-.62-.15-.74,0-.77.59a6.17,6.17,0,0,0,4,6.08C973.7,471.71,973.74,471.68,973.72,470.28Zm23.51-29.14c-3.29,1-5.63,5.67-5,9.68a1,1,0,0,0,1.92-.17c0-.4,0-.8,0-1.2a7.13,7.13,0,0,1,2.14-5.29A2.58,2.58,0,0,0,997.23,441.14Zm-4.35,56.74a5.5,5.5,0,0,0-.41-2.41c-.77-2.05-.91-2.09-2.3-.5a4.3,4.3,0,0,1-.66.69,1.82,1.82,0,0,0-.63,2.22A7.31,7.31,0,0,0,991,501.3c.6.56.91.41,1.22-.26A6.47,6.47,0,0,0,992.88,497.88Zm-58.15-45.15a5.84,5.84,0,0,0,2.45,4.85c.49.37.73.27.94-.27a5.83,5.83,0,0,0-.44-5.39c-.51-.86-1.23-2.07-2.12-1.82S934.81,451.78,934.73,452.73Zm8.93,61.84c-.08.48.09.69.64.68a6.15,6.15,0,0,0,5.52-5.1c0-.43-.07-.55-.47-.6C947,509.24,943.73,512.1,943.66,514.57Zm36.53-28.05a5.59,5.59,0,0,0-5.13,4.32c-.09.55,0,.82.59.84a5.68,5.68,0,0,0,5.21-4.33C981,486.72,980.8,486.41,980.19,486.52Zm11.1-30.28a5.63,5.63,0,0,0-3.93,1.47c-.4.41-.45.68.1,1a5.42,5.42,0,0,0,4.13.71,4.23,4.23,0,0,0,2.93-1.85C994.77,457.14,992.67,456.25,991.29,456.24Zm2.6,24.84c0-.26-.08-.77-.16-1.28-.14-.87-.54-.9-1.22-.43a5.64,5.64,0,0,0-2.1,6.15c.18.56.34.87,1,.44A5.47,5.47,0,0,0,993.89,481.08Zm-48-24.84a5,5,0,0,0-3.59,1.24c-.44.38-.82.81-.05,1.32a5.63,5.63,0,0,0,6.63-.8c.37-.41.36-.64-.11-.91A5.36,5.36,0,0,0,945.88,456.24Zm8.58,32.7a9.78,9.78,0,0,0-.5-2.44c-.17-.49-.44-.62-.9-.33-1.51,1-2.87,2.05-1.77,4.27.32.64.66,1.27,1,1.91s.64.49,1,0A6,6,0,0,0,954.46,488.94Zm.62-50.16a6.27,6.27,0,0,0,.93,3c1.19,1.89,1.74,2,3.38.57a1.63,1.63,0,0,1,.18-.16c.51-.32.53-.7.23-1.21a6,6,0,0,0-3.94-2.89C955.31,437.92,955,438,955.08,438.78Zm20-8.76a6.16,6.16,0,0,0,2.66,4.83c.42.28.66.33.77-.31a21.49,21.49,0,0,1,.63-2.3c.1-.35.2-.67-.13-1a5.67,5.67,0,0,0-3.23-1.67C975.29,429.51,975,429.7,975.1,430Zm-43.15,41.24a16.32,16.32,0,0,1-2.92-1.83,1.1,1.1,0,0,0-1.12-.19,5.82,5.82,0,0,0-2.35,1.38c-.36.34-.44.58,0,.93A5.64,5.64,0,0,0,931.95,471.25Zm68,11.47a4.75,4.75,0,0,0,4.19-3.82c.05-.42.09-.77-.54-.79-1.86,0-4.24,2.2-4.26,4C999.33,482.61,999.44,482.85,999.95,482.72Zm-1.77-15.84c-.07-.57.11-1.29-.46-1.52s-.94.31-1.33.65a4.64,4.64,0,0,0-1.63,4.49c.11.7.4.79,1,.46A4.78,4.78,0,0,0,998.18,466.88Zm-12.85,20.78c-.06-.52-.12-1-.17-1.53-.16-1.77-1.06-2.48-2.89-2.31-.49,0-.59.17-.48.66A4.33,4.33,0,0,0,985.33,487.66Z" transform="translate(-884.13 -393.1)"/><path class="cls-3" d="M921.34,489a10.44,10.44,0,0,1,13-2.94c.9.45,1.08.8.36,1.63a10.55,10.55,0,0,1-11.75,3c-.44-.17-.9-.3-1.36-.44Z" transform="translate(-884.13 -393.1)"/><path class="cls-3" d="M1009,495.86a10.37,10.37,0,0,1-10.79-5.67c-.21-.46-.34-.76.29-1,4.62-1.63,9.82.56,11.74,3.83A6.07,6.07,0,0,1,1009,495.86Z" transform="translate(-884.13 -393.1)"/><path class="cls-3" d="M1010.43,456.37a9.19,9.19,0,0,1-7.76,4.17c-.87,0-1-.33-.83-1.08a9.26,9.26,0,0,1,6.82-7.12A17.05,17.05,0,0,1,1010.43,456.37Z" transform="translate(-884.13 -393.1)"/><path class="cls-3" d="M1013.34,466.27a8.51,8.51,0,0,1-9.92-3.17c-.44-.69-.13-.89.42-1.12a8.55,8.55,0,0,1,7.7.45c.34.18.59.55,1,.52h0c0,.17.07.24.22.26A10.6,10.6,0,0,1,1013.34,466.27Z" transform="translate(-884.13 -393.1)"/><path class="cls-3" d="M927.8,501.92a8.59,8.59,0,0,1,9.89-.25c.82.54.94.91.12,1.56a8.57,8.57,0,0,1-6.67,2,7.48,7.48,0,0,0-.84,0A23.83,23.83,0,0,1,927.8,501.92Z" transform="translate(-884.13 -393.1)"/><path class="cls-3" d="M1014.19,475.2a10.78,10.78,0,0,1-4.78,2.79c-1.36.3-1.56.18-1.38-1.22a8.43,8.43,0,0,1,5.81-7.32A32.58,32.58,0,0,1,1014.19,475.2Z" transform="translate(-884.13 -393.1)"/><path class="cls-3" d="M932.61,441.35c1.11.12,2.09-.56,3.22-.5.8,0,.91.25.75,1a7.81,7.81,0,0,1-7.4,6.16c-.57,0-.95-.1-.75-.82a8.66,8.66,0,0,0,.16-1.18,24.54,24.54,0,0,1,3.67-4.4c.19,0,.4,0,.37-.26Z" transform="translate(-884.13 -393.1)"/><path class="cls-3" d="M923.52,454.52a7.85,7.85,0,0,1,.87,10.31c-.44.57-.7.55-1.17,0a10.75,10.75,0,0,1-2.1-4.34A24.49,24.49,0,0,1,923.52,454.52Z" transform="translate(-884.13 -393.1)"/><path class="cls-3" d="M952.77,428.91c2.19.87,4.14,2,5.11,4.34.29.69.86,1.51.43,2.1s-1.34.19-2,0a7.19,7.19,0,0,1-5.88-5.58Z" transform="translate(-884.13 -393.1)"/><path class="cls-3" d="M989.09,516.45c-.36-.39-.88-.28-1.33-.41a5.9,5.9,0,0,1-4.34-4.6c-.19-.79.13-.91.78-.87a5.81,5.81,0,0,1,5.34,5.46A.66.66,0,0,1,989.09,516.45Z" transform="translate(-884.13 -393.1)"/><path class="cls-3" d="M998.88,509.3A6,6,0,0,1,993.7,504c-.09-.87.08-1.26,1.1-1a6,6,0,0,1,4.34,6Z" transform="translate(-884.13 -393.1)"/><path class="cls-3" d="M1005.35,447c.25,1.89.2,3.74-1.06,5.33-.46.58-1,1.51-1.69,1.29s-.74-1.25-.83-2a6,6,0,0,1,2.61-5.89C1004.64,446.16,1005.22,446.38,1005.35,447Z" transform="translate(-884.13 -393.1)"/><path class="cls-2" d="M971,494.39a15.63,15.63,0,0,0,0,2.15c.17,1.21-.26,1.57-1.47,1.5-.87-.05-1.17-.22-1.12-1.13.08-1.59,0-3.19,0-4.78a5.7,5.7,0,0,1,.15-1.3,1.17,1.17,0,0,1,1.28-1,1.09,1.09,0,0,1,1,1.11c.07,1.15,0,2.31,0,3.46Z" transform="translate(-884.13 -393.1)"/><path class="cls-3" d="M919.65,481.72a5.86,5.86,0,0,1,7.19,0c.6.49.62.78,0,1.22-2.38,1.57-4.72,1.32-7.07,0Z" transform="translate(-884.13 -393.1)"/><path class="cls-3" d="M924.95,497.31a5.82,5.82,0,0,1,4.68-4.53c.6-.14,1-.18.92.78a6,6,0,0,1-4.84,5.19A3.68,3.68,0,0,1,924.95,497.31Z" transform="translate(-884.13 -393.1)"/><path class="cls-3" d="M994.07,435.75a7,7,0,0,1,.45,5c-.37,1.08-.54,1.13-1.46.4a5.9,5.9,0,0,1-1.55-7A10,10,0,0,1,994.07,435.75Z" transform="translate(-884.13 -393.1)"/><path class="cls-3" d="M1004.5,503.24a22.14,22.14,0,0,1-1.7-1.47,5.52,5.52,0,0,1-1.56-4.11c0-1.45.16-1.55,1.47-.86a5.61,5.61,0,0,1,3.15,4.34A13.29,13.29,0,0,1,1004.5,503.24Z" transform="translate(-884.13 -393.1)"/><path class="cls-2" d="M967.48,494.28q0,1.08,0,2.15c0,1.54-.56,1.94-2.06,1.57-.4-.1-.38-.33-.38-.6,0-2.07,0-4.15,0-6.22a1.22,1.22,0,0,1,1.22-1.35c.87,0,1.17.58,1.18,1.34,0,1,0,2.07,0,3.11Z" transform="translate(-884.13 -393.1)"/><path class="cls-2" d="M964.12,494.35c0,1,0,1.92,0,2.87.08,1.19-.78.73-1.3.76s-1.21.29-1.17-.77c.07-2,0-3.91,0-5.86,0-.86.35-1.54,1.3-1.52s1.12.74,1.13,1.53C964.12,492.36,964.12,493.35,964.12,494.35Z" transform="translate(-884.13 -393.1)"/><path class="cls-3" d="M1011.76,489.53a6.62,6.62,0,0,1-5.27-1.8c-.61-.61-.67-.92.21-1.34a6.43,6.43,0,0,1,5.85.34Z" transform="translate(-884.13 -393.1)"/><path class="cls-3" d="M919.45,469.38a7.34,7.34,0,0,1,2.15,7.67c-.21.57-.46.68-1,.37l-1.62-1A23.35,23.35,0,0,1,919.45,469.38Z" transform="translate(-884.13 -393.1)"/><path class="cls-3" d="M972.49,427.25a5.75,5.75,0,0,1-3.93,4.58c-.65.2-1.5.5-1.94.05s.07-1.26.35-1.86a6.55,6.55,0,0,1,3.58-3Z" transform="translate(-884.13 -393.1)"/><path class="cls-3" d="M988.27,432.11c-.66.7-.83,1.69-1.54,2.38a5.76,5.76,0,0,1-3.34,1.68c-1.17.15-1.36-.07-1-1.22a5.46,5.46,0,0,1,2.83-3.24c.34-.17.81-.17,1-.63Z" transform="translate(-884.13 -393.1)"/><path class="cls-3" d="M1013.5,482.41a6.71,6.71,0,0,1-4.87-.41c-.69-.36-.78-.66-.19-1.21a6,6,0,0,1,5.5-1.57Z" transform="translate(-884.13 -393.1)"/><path class="cls-3" d="M1001.54,442.35a6.5,6.5,0,0,1-1.16,3c-.48.7-.8.56-1.21-.05a5.8,5.8,0,0,1-.63-5.88A17.12,17.12,0,0,1,1001.54,442.35Z" transform="translate(-884.13 -393.1)"/><path class="cls-2" d="M1012.78,463.2c-.15,0-.25-.09-.22-.26C1012.83,462.86,1012.75,463.08,1012.78,463.2Z" transform="translate(-884.13 -393.1)"/><path class="cls-2" d="M932.64,441.34c0,.3-.18.27-.37.26Z" transform="translate(-884.13 -393.1)"/><path class="cls-2" d="M1020.65,439.85l.27-.1,0,.29Z" transform="translate(-884.13 -393.1)"/><path class="cls-2" d="M982.4,411.42c-.74-.48-2.41.21-2.56-1.09-.1-.82-.27-2.79,1.11-2.75,2.29.08,3.39.49,3.33,1.89S983.67,411.47,982.4,411.42Z" transform="translate(-884.13 -393.1)"/><path class="cls-2" d="M1028.64,500.85a3.3,3.3,0,0,1-.67,1.64c-.51.76-1,0-1.38-.2a23.7,23.7,0,0,1-2.8-1.34c-.35-.19-1.16-.17-.86-.86s.53-2,1.63-1.76a9.42,9.42,0,0,1,3.82,1.88A.77.77,0,0,1,1028.64,500.85Z" transform="translate(-884.13 -393.1)"/><path class="cls-2" d="M941.07,531.2c0,1,.14,1.85-.37,2.41-.18.2-.75-.24-1.21-.5Z" transform="translate(-884.13 -393.1)"/><path class="cls-3" d="M980.49,457.49c-1.65.1-1.66.1-1.3-1.49a10.84,10.84,0,0,1,10.44-8.44c.85,0,1.19.13,1,1.13A10.76,10.76,0,0,1,980.49,457.49Z" transform="translate(-884.13 -393.1)"/><path class="cls-3" d="M952.32,450.66a10.66,10.66,0,0,1-1.58,4.73c-.39.66-.69.83-1.35.24a10.88,10.88,0,0,1-2-13.57c.55-.91.93-.81,1.6-.18A11.46,11.46,0,0,1,952.32,450.66Z" transform="translate(-884.13 -393.1)"/><path class="cls-3" d="M927.39,457a11.35,11.35,0,0,1,2.42-6.77c.5-.65.82-.76,1.43-.07a11,11,0,0,1,.1,13.79c-.58.68-.91.65-1.44,0A11.34,11.34,0,0,1,927.39,457Z" transform="translate(-884.13 -393.1)"/><path class="cls-3" d="M966.9,447.84c1.06-.26,1.11.37,1,1.28a10.85,10.85,0,0,1-9.86,9c-.91.08-1.27-.11-1.16-1.16A10.81,10.81,0,0,1,966.9,447.84Z" transform="translate(-884.13 -393.1)"/><path class="cls-3" d="M948.81,507.11c-.54.11-.71-.13-.75-.64a1.61,1.61,0,0,0-1.43-1.54,1.75,1.75,0,0,0-2,1c-.26.47-.43.92-1.16.63s-.81-.51-.42-1.19a10.53,10.53,0,0,1,12.71-4.42c.46.19.95.34.56,1A10.35,10.35,0,0,1,948.81,507.11Z" transform="translate(-884.13 -393.1)"/><path class="cls-3" d="M954.45,472a9.68,9.68,0,0,1-2.26,6c-.46.55-.73.53-1.18,0a9.28,9.28,0,0,1,.25-11.67c.44-.49.74-.58,1.19,0A9.82,9.82,0,0,1,954.45,472Z" transform="translate(-884.13 -393.1)"/><path class="cls-3" d="M994.08,495.44a9.64,9.64,0,0,1,.72-3.69c.2-.49.43-.54.91-.29,3.46,1.81,5.19,7.25,3.46,10.8-.33.67-.63.55-1.09.24A8.66,8.66,0,0,1,994.08,495.44Z" transform="translate(-884.13 -393.1)"/><path class="cls-3" d="M976,510.21a8.57,8.57,0,0,1,.36-2.72c.18-.68.42-.89,1.15-.49a8.85,8.85,0,0,1,4,10.4c-.25.69-.53.73-1.11.38A8.52,8.52,0,0,1,976,510.21Z" transform="translate(-884.13 -393.1)"/><path class="cls-3" d="M950.83,515a8.54,8.54,0,0,1,4.32-7.52c.64-.39,1-.4,1.25.44a8.87,8.87,0,0,1-4,10.23c-.64.35-1,.35-1.2-.43A8.38,8.38,0,0,1,950.83,515Z" transform="translate(-884.13 -393.1)"/><path class="cls-3" d="M987.32,469.45c-.22-.92.28-1.11,1.19-1a8.82,8.82,0,0,1,7,8.19c0,.78-.43.71-.93.66A8.6,8.6,0,0,1,987.32,469.45Z" transform="translate(-884.13 -393.1)"/><path class="cls-3" d="M944.57,450.91a12.77,12.77,0,0,1-.41,2.62c-.18.62-.45.7-1,.43a8.68,8.68,0,0,1-4.26-10.08c.23-.67.48-.8,1.11-.45A8.62,8.62,0,0,1,944.57,450.91Z" transform="translate(-884.13 -393.1)"/><path class="cls-3" d="M995.48,452.23a8.33,8.33,0,0,1,.83-3.7c.23-.51.49-.59,1-.28,3.26,2,4.63,7.58,2.67,10.88-.37.63-.66.37-1,.1A8.44,8.44,0,0,1,995.48,452.23Z" transform="translate(-884.13 -393.1)"/><path class="cls-3" d="M932.67,497.71a8.56,8.56,0,0,1,4.46-6.79c.54-.31,1-.48,1.44.12a1.27,1.27,0,0,0,.28.22c1.77,1.32,1.83,1.53.77,3.49a8.55,8.55,0,0,1-5.67,4.44C932.66,499.51,932.6,499.45,932.67,497.71Z" transform="translate(-884.13 -393.1)"/><path class="cls-3" d="M973.69,432.2c.86-.18,1.06.22.85,1.13a8.44,8.44,0,0,1-7.87,6.52c-.87,0-1-.31-.86-1.06A8.29,8.29,0,0,1,973.69,432.2Z" transform="translate(-884.13 -393.1)"/><path class="cls-3" d="M977.35,498c-1.36,0-1.36,0-1-1.27a8.26,8.26,0,0,1,7.66-6.14c1,0,1.14.35,1,1.2A8.17,8.17,0,0,1,977.35,498Z" transform="translate(-884.13 -393.1)"/><path class="cls-3" d="M964.76,434.65a9.33,9.33,0,0,1-1.15,4c-.3.52-.54.68-1.09.25-2.8-2.19-3.57-7.33-1.54-10.27.34-.5.58-.51,1-.12A8.29,8.29,0,0,1,964.76,434.65Z" transform="translate(-884.13 -393.1)"/><path class="cls-3" d="M970,446a7.7,7.7,0,0,1-4.4-1.32c-.53-.34-.59-.6-.12-1.1a8.25,8.25,0,0,1,10.14-1.12c.73.5.62.87.05,1.37A8,8,0,0,1,970,446Z" transform="translate(-884.13 -393.1)"/><path class="cls-3" d="M978,452.4a8.43,8.43,0,0,1-1.18,4.05c-.3.51-.52.56-1,.18a8.24,8.24,0,0,1-1.59-10.26c.39-.59.67-.49,1.11-.11A8.55,8.55,0,0,1,978,452.4Z" transform="translate(-884.13 -393.1)"/><path class="cls-3" d="M948.24,480.23c0,2.23-.31,2.41-2.23,1.31a8.16,8.16,0,0,1-4-8c.12-.94.41-1.21,1.37-.8A8.07,8.07,0,0,1,948.24,480.23Z" transform="translate(-884.13 -393.1)"/><path class="cls-3" d="M982.82,501.53a9.36,9.36,0,0,1,7.53,4.6c.16.26.56.6,0,.88s-.83.37-1.13-.17l-.77-1.34a1.82,1.82,0,0,0-2.42-.94,1.71,1.71,0,0,0-1,2.28c.35.92-.14.86-.71.71a9.44,9.44,0,0,1-5.28-3.48c-.39-.52-.37-.82.28-1C980.59,502.69,981.55,501.62,982.82,501.53Z" transform="translate(-884.13 -393.1)"/><path class="cls-3" d="M981.62,460.79a8.25,8.25,0,0,1,4.72,1.38c.51.33.5.56.09,1a7.84,7.84,0,0,1-7.9,2.17c-.55-.14-1.46-.12-1.37-1s-.11-2.07,1-2.63A7.05,7.05,0,0,1,981.62,460.79Z" transform="translate(-884.13 -393.1)"/><path class="cls-3" d="M945.91,499.48a7.23,7.23,0,0,1-4-1.06c-.57-.31-.75-.61-.21-1.15a7.78,7.78,0,0,1,7.42-2.32c1.09.22,1.45,1.41,2.17,2.13.3.3-.17.55-.4.73A7.38,7.38,0,0,1,945.91,499.48Z" transform="translate(-884.13 -393.1)"/><path class="cls-3" d="M984.44,442.82a7.63,7.63,0,0,1,3-6.12c.65-.53,1-.39,1.29.35a7.75,7.75,0,0,1-2.55,9.18c-.53.36-.78.35-1-.28A7.84,7.84,0,0,1,984.44,442.82Z" transform="translate(-884.13 -393.1)"/><path class="cls-3" d="M947.06,467.41c-.1,1,.07,2.48-.78,2.83s-1.79-.78-2.46-1.54a7.46,7.46,0,0,1-1.62-7.35c.22-.8.51-.79,1.14-.4A7.64,7.64,0,0,1,947.06,467.41Z" transform="translate(-884.13 -393.1)"/><path class="cls-3" d="M933.87,481.37a5.84,5.84,0,0,0,.8-.74,1.7,1.7,0,0,0,.16-2,1.77,1.77,0,0,0-1.91-.92,9.83,9.83,0,0,1-1.3.17,2.59,2.59,0,0,1-2.53-2.86c.05-.39.31-.42.59-.43a8.7,8.7,0,0,1,9.05,7.08c.12.66-.27.66-.68.66A8.25,8.25,0,0,1,933.87,481.37Z" transform="translate(-884.13 -393.1)"/><path class="cls-3" d="M985.2,479.48c0,1.93-.21,2.06-1.92,1.16a7.38,7.38,0,0,1-3.84-7.14c.08-.91.41-1,1.22-.71A7.25,7.25,0,0,1,985.2,479.48Z" transform="translate(-884.13 -393.1)"/><path class="cls-3" d="M973.81,461.42c0,.83-.26,1.23-1.23,1a7.06,7.06,0,0,1-5.16-6.47c0-.74.18-1,.95-.85A7.09,7.09,0,0,1,973.81,461.42Z" transform="translate(-884.13 -393.1)"/><path class="cls-3" d="M964.08,463.18a7.39,7.39,0,0,1-2.6,5.47c-.47.41-.78.5-1-.21-.11-.38-.34-.73-.44-1.11-.22-.78-1.06-1.33-.84-2.28a6.86,6.86,0,0,1,2.05-3.57c.61-.56,1.35-1.5,2-1.23s.62,1.51.75,2.36C964.07,462.77,964.07,462.93,964.08,463.18Z" transform="translate(-884.13 -393.1)"/><path class="cls-3" d="M940.35,441.4c-.71,0-1.73.2-2-.4s.43-1.36.84-2a6.34,6.34,0,0,1,1.68-1.68,4.29,4.29,0,0,1,5.31.06c.58.42.31.71,0,1.06A7,7,0,0,1,940.35,441.4Z" transform="translate(-884.13 -393.1)"/><path class="cls-1" d="M931.45,480.78a11.23,11.23,0,0,1-8.39-4.65c-.46-.62-.93-1.38,0-2s1.21.21,1.68.78c2.1,2.56,4.62,4.25,8.16,3.62.62-.11,1.15,0,1.29.7a1,1,0,0,1-.81,1.25A7.2,7.2,0,0,1,931.45,480.78Z" transform="translate(-884.13 -393.1)"/><path class="cls-3" d="M991.11,465.88c-1.51,0-1.64-.18-1-1.54a6.58,6.58,0,0,1,6.49-3.82c.77,0,1,.24.68,1A6.6,6.6,0,0,1,991.11,465.88Z" transform="translate(-884.13 -393.1)"/><path class="cls-3" d="M975.56,479.14a5.58,5.58,0,0,1,.5-2.43c.24-.57.48-.74,1.06-.34a6.65,6.65,0,0,1,2,7.88c-.3.6-.55.66-1.06.24A6.34,6.34,0,0,1,975.56,479.14Z" transform="translate(-884.13 -393.1)"/><path class="cls-3" d="M1003.2,471.08c0-.32.08-.72.17-1.11.14-.6.11-1.47.74-1.63s1,.51,1.44,1a6.43,6.43,0,0,1,1.49,6.86c-.24.71-.52.74-1.09.33A6.58,6.58,0,0,1,1003.2,471.08Z" transform="translate(-884.13 -393.1)"/><path class="cls-3" d="M952.29,482.35a6.4,6.4,0,0,1,5.15-5.68c.67-.11.92,0,.88.78a6.56,6.56,0,0,1-5.3,5.84C952.09,483.43,952.31,482.84,952.29,482.35Z" transform="translate(-884.13 -393.1)"/><path class="cls-3" d="M973.72,470.28c0,1.4,0,1.43-1.37.91a6.17,6.17,0,0,1-4-6.08c0-.59.15-.74.77-.59A6.15,6.15,0,0,1,973.72,470.28Z" transform="translate(-884.13 -393.1)"/><path class="cls-1" d="M997.23,441.14a2.58,2.58,0,0,1-1,3,7.13,7.13,0,0,0-2.14,5.29c0,.4,0,.8,0,1.2a1,1,0,0,1-1.92.17C991.59,446.81,993.94,442.16,997.23,441.14Z" transform="translate(-884.13 -393.1)"/><path class="cls-3" d="M992.88,497.88a6.47,6.47,0,0,1-.69,3.15c-.31.67-.62.82-1.22.26a7.31,7.31,0,0,1-2.09-3.42,1.82,1.82,0,0,1,.63-2.22,4.3,4.3,0,0,0,.66-.69c1.4-1.59,1.53-1.55,2.3.5A5.5,5.5,0,0,1,992.88,497.88Z" transform="translate(-884.13 -393.1)"/><path class="cls-3" d="M934.31,509.3a5.91,5.91,0,0,1,6.23-4.34c1.29.06,1.42.28.83,1.39a6,6,0,0,1-6,3c-.35,0-.71-.07-1.06-.1Z" transform="translate(-884.13 -393.1)"/><path class="cls-3" d="M934.73,452.73c.08-1-.1-2.38.84-2.64s1.61,1,2.12,1.82a5.83,5.83,0,0,1,.44,5.39c-.22.55-.45.64-.94.27A5.84,5.84,0,0,1,934.73,452.73Z" transform="translate(-884.13 -393.1)"/><path class="cls-3" d="M943.66,514.57c.07-2.47,3.35-5.33,5.69-5,.41.05.51.17.47.6a6.15,6.15,0,0,1-5.52,5.1C943.75,515.25,943.58,515,943.66,514.57Z" transform="translate(-884.13 -393.1)"/><path class="cls-3" d="M980.19,486.52c.61-.1.77.2.67.83a5.68,5.68,0,0,1-5.21,4.33c-.64,0-.68-.29-.59-.84A5.59,5.59,0,0,1,980.19,486.52Z" transform="translate(-884.13 -393.1)"/><path class="cls-3" d="M991.29,456.24c1.37,0,3.47.91,3.24,1.33a4.23,4.23,0,0,1-2.93,1.85,5.42,5.42,0,0,1-4.13-.71c-.55-.31-.5-.58-.1-1A5.63,5.63,0,0,1,991.29,456.24Z" transform="translate(-884.13 -393.1)"/><path class="cls-3" d="M993.89,481.08a5.47,5.47,0,0,1-2.52,4.88c-.62.43-.78.12-1-.44a5.64,5.64,0,0,1,2.1-6.15c.68-.47,1.08-.44,1.22.43C993.82,480.31,993.86,480.82,993.89,481.08Z" transform="translate(-884.13 -393.1)"/><path class="cls-3" d="M945.88,456.24a5.36,5.36,0,0,1,2.88.85c.47.27.48.5.11.91a5.63,5.63,0,0,1-6.63.8c-.77-.51-.38-.94.05-1.32A5,5,0,0,1,945.88,456.24Z" transform="translate(-884.13 -393.1)"/><path class="cls-3" d="M954.46,488.94a6,6,0,0,1-1.19,3.45c-.37.45-.69.65-1,0s-.65-1.27-1-1.91c-1.09-2.22.26-3.31,1.77-4.27.46-.29.73-.16.9.33A9.78,9.78,0,0,1,954.46,488.94Z" transform="translate(-884.13 -393.1)"/><path class="cls-3" d="M955.08,438.78c-.11-.76.24-.86.77-.73a6,6,0,0,1,3.94,2.89c.3.51.29.89-.23,1.21a1.63,1.63,0,0,0-.18.16c-1.64,1.41-2.18,1.32-3.38-.57A6.27,6.27,0,0,1,955.08,438.78Z" transform="translate(-884.13 -393.1)"/><path class="cls-3" d="M975.1,430c-.06-.32.19-.51.71-.43a5.67,5.67,0,0,1,3.23,1.67c.32.32.23.64.13,1a21.49,21.49,0,0,0-.63,2.3c-.11.64-.35.59-.77.31A6.16,6.16,0,0,1,975.1,430Z" transform="translate(-884.13 -393.1)"/><path class="cls-3" d="M931.95,471.25a5.64,5.64,0,0,1-6.35.28c-.47-.35-.4-.58,0-.93a5.82,5.82,0,0,1,2.35-1.38,1.1,1.1,0,0,1,1.12.19A16.32,16.32,0,0,0,931.95,471.25Z" transform="translate(-884.13 -393.1)"/><path class="cls-3" d="M999.95,482.72c-.5.13-.61-.11-.61-.57,0-1.84,2.39-4.09,4.26-4,.63,0,.59.37.54.79A4.75,4.75,0,0,1,999.95,482.72Z" transform="translate(-884.13 -393.1)"/><path class="cls-3" d="M998.18,466.88a4.78,4.78,0,0,1-2.46,4.08c-.56.33-.85.23-1-.46a4.64,4.64,0,0,1,1.63-4.49c.39-.34.85-.85,1.33-.65S998.1,466.32,998.18,466.88Z" transform="translate(-884.13 -393.1)"/><path class="cls-3" d="M985.33,487.66a4.33,4.33,0,0,1-3.54-3.18c-.1-.49,0-.61.48-.66,1.83-.17,2.73.54,2.89,2.31C985.21,486.64,985.27,487.14,985.33,487.66Z" transform="translate(-884.13 -393.1)"/></svg>