<svg id="Capa_1" enable-background="new 0 0 512 512" height="512" viewBox="0 0 512 512" width="512" xmlns="http://www.w3.org/2000/svg"><g><g><path d="m106.753 17.922-56.231 15.067c-8.557 2.293-15.241 8.977-17.534 17.533l-15.067 56.231c-2.293 8.557.154 17.687 6.418 23.951l38.891 38.891c6.264 6.264 15.394 8.711 23.951 6.418l56.231-15.067c8.557-2.293 15.241-8.977 17.533-17.533l15.067-56.231c2.293-8.557-.154-17.687-6.418-23.951l-38.89-38.891c-6.264-6.264-15.394-8.711-23.951-6.418zm4.826 93.657c-8.07 8.07-21.153 8.07-29.222 0-8.07-8.07-8.07-21.153 0-29.222 8.07-8.07 21.153-8.07 29.222 0 8.069 8.069 8.069 21.152 0 29.222z" fill="#f7e365"/></g><g><path d="m169.595 63.231-34.613-34.613c9.958 21.46 11.473 50.509 2.096 79.615-11.007 34.163-34.146 59.528-59.105 68.457 3.039.345 6.16.141 9.209-.676l56.231-15.067c8.557-2.293 15.241-8.977 17.534-17.534l15.067-56.231c2.292-8.557-.155-17.687-6.419-23.951z" fill="#f3d332"/></g><g><path d="m181.456 7.516-27.877.581c-3.969.083-7.86 1.445-10.823 4.088-6.997 6.24-7.227 16.979-.691 23.515l52.883 52.883c10.263 10.263 14.366 25.165 10.795 39.233-3.011 11.86-6.694 26.37-9.744 38.386-3.718 14.647-15.15 26.079-29.796 29.797-12.007 3.048-26.504 6.728-38.36 9.737-14.083 3.575-29.003-.531-39.277-10.805l-52.866-52.867c-6.313-6.313-16.549-6.313-22.863 0-2.949 2.949-4.645 6.924-4.731 11.095l-.589 28.297c-.468 22.451 8.245 44.12 24.123 59.998l30.907 30.907c24.735 24.735 60.33 35.23 94.527 27.871l29.921-6.439c13.679-2.944 27.917 1.254 37.811 11.148l199.556 199.559 80.138-80.138-199.559-199.558c-9.894-9.894-14.092-24.132-11.148-37.811l6.439-29.92c7.359-34.197-3.136-69.792-27.871-94.527l-30.907-30.907c-15.878-15.878-37.548-24.591-59.998-24.123z" fill="#9facba"/></g><g><g><path d="m162.262 26.709c22.451-.468 44.12 8.245 59.998 24.123l19.446 19.446c24.735 24.735 35.23 60.33 27.871 94.527l-6.439 29.92c-2.944 13.679 1.254 27.917 11.148 37.811l211.019 211.02 19.193-19.193-199.557-199.559c-9.894-9.894-14.092-24.132-11.148-37.811l6.439-29.92c7.359-34.197-3.136-69.792-27.871-94.527l-30.907-30.907c-15.878-15.878-37.548-24.591-59.998-24.123l-27.877.581c-3.969.083-7.86 1.445-10.823 4.088-4.426 3.947-6.136 9.693-5.147 15.038z" fill="#8d9ca8"/></g><g><path d="m16.506 161.257 44.382 44.382c10.274 10.274 25.194 14.38 39.277 10.805 11.856-3.009 26.353-6.689 38.36-9.737 5.693-1.445 10.89-4.068 15.348-7.579-8.829 2.241-18.03 4.577-26.03 6.607-14.083 3.575-29.003-.531-39.277-10.805l-52.866-52.866c-6.313-6.313-16.549-6.313-22.863 0-2.949 2.949-4.645 6.924-4.731 11.095l-.076 3.64c3.105.574 6.075 2.057 8.476 4.458z" fill="#8d9ca8"/></g></g><g><path d="m481.187 447.675-33.512 33.512-192.465-192.464c-9.254-9.254-9.254-24.258 0-33.512 9.254-9.254 24.258-9.254 33.512 0z" fill="#596c76"/></g><g><path d="m77.053 116.881c5.319 5.32 12.392 8.25 19.915 8.25s14.595-2.93 19.915-8.249c10.981-10.981 10.981-28.848 0-39.828-5.32-5.32-12.392-8.25-19.915-8.25s-14.595 2.93-19.915 8.249c-10.981 10.982-10.981 28.848 0 39.828zm10.607-29.221c2.486-2.486 5.792-3.855 9.308-3.855s6.821 1.369 9.308 3.856c5.132 5.132 5.132 13.482 0 18.614v.001c-2.487 2.486-5.792 3.855-9.308 3.855s-6.821-1.369-9.308-3.856c-5.133-5.132-5.133-13.483 0-18.615z"/><path d="m230.102 299.637c-11.743-11.744-28.451-16.674-44.692-13.18l-29.92 6.44c-28.666 6.166-59.16-1.416-81.572-20.286-3.169-2.669-7.901-2.264-10.568.907-2.668 3.168-2.262 7.899.907 10.567 25.935 21.836 61.22 30.613 94.389 23.476l29.919-6.44c11.241-2.411 22.804.994 30.93 9.122l199.561 199.56c1.464 1.464 3.384 2.196 5.303 2.196s3.839-.732 5.303-2.196c2.929-2.93 2.929-7.678 0-10.607z"/><path d="m16.299 150.096c.438-1.028 1.051-1.938 1.847-2.729 1.635-1.638 3.809-2.539 6.123-2.539 2.312 0 4.485.9 6.124 2.541l27.537 27.537c.033.033.068.063.101.096l25.232 25.228c12.069 12.081 29.856 16.98 46.421 12.779 11.861-3.01 26.362-6.69 38.361-9.74 17.326-4.399 30.823-17.897 35.224-35.224l9.74-38.381c4.196-16.538-.691-34.312-12.756-46.389l-52.884-52.884c-1.702-1.699-2.603-3.961-2.534-6.368.068-2.406 1.104-4.62 2.927-6.246 1.518-1.359 3.638-2.133 5.974-2.181l27.88-.58c20.306-.438 40.181 7.567 54.539 21.925l30.902 30.912c23.036 23.026 32.696 55.789 25.84 87.638l-6.44 29.922c-3.49 16.241 1.437 32.947 13.179 44.69l92.56 92.561c1.464 1.464 3.384 2.196 5.303 2.196s3.839-.732 5.303-2.196c2.929-2.93 2.929-7.678 0-10.607l-92.56-92.561c-8.127-8.126-11.537-19.689-9.121-30.928l6.44-29.92c7.933-36.851-3.245-74.759-29.898-101.402l-30.901-30.911c-16.798-16.799-39.888-26.335-63.61-26.335-.615 0-1.234.006-1.849.02l-27.876.58c-5.917.119-11.482 2.25-15.659 5.99-2.765 2.464-4.864 5.448-6.208 8.755-7.722-5.335-17.525-7.14-26.751-4.672l-10.76 2.88c-4.001 1.071-6.377 5.183-5.306 9.185 1.071 4.001 5.184 6.375 9.184 5.306l10.759-2.88c5.952-1.59 12.358.126 16.718 4.479l38.886 38.886c4.358 4.364 6.072 10.765 4.473 16.71l-15.058 56.225c-1.6 5.953-6.291 10.645-12.237 12.241l-56.238 15.061c-5.909 1.587-12.274-.103-16.633-4.41l-38.952-38.946c-4.357-4.364-6.075-10.772-4.483-16.72l15.071-56.232c1.593-5.947 6.277-10.632 12.23-12.227l11.66-3.13c4.001-1.073 6.373-5.188 5.299-9.188-1.074-4.002-5.19-6.373-9.188-5.299l-11.656 3.129c-11.11 2.976-19.859 11.725-22.834 22.832l-15.071 56.235c-2.468 9.224-.664 19.028 4.674 26.753-2.887 1.174-5.535 2.921-7.794 5.184-2.154 2.139-3.855 4.653-5.057 7.475-1.194 2.807-1.829 5.765-1.887 8.78l-.59 28.299c-.51 24.368 9.082 48.228 26.317 65.463l12.43 12.42c2.93 2.927 7.679 2.926 10.606-.005 2.928-2.93 2.926-7.679-.004-10.606l-12.428-12.418c-14.359-14.358-22.35-34.237-21.925-54.54l.59-28.312c.022-1.097.256-2.177.694-3.207zm72.82 33.158 56.236-15.062c11.103-2.982 19.854-11.733 22.839-22.843l15.058-56.223c.119-.441.211-.885.31-1.329l6.082 6.082c8.347 8.355 11.729 20.653 8.826 32.094l-9.74 38.38c-3.045 11.991-12.386 21.332-24.379 24.377-11.999 3.049-26.498 6.73-38.356 9.738-11.464 2.909-23.771-.48-32.125-8.844l-6.066-6.064c.44-.098.879-.189 1.315-.306z"/><path d="m509.803 419.056-82.26-82.261c-2.929-2.928-7.678-2.928-10.606 0-2.929 2.93-2.929 7.678 0 10.607l82.26 82.261c1.464 1.464 3.384 2.196 5.303 2.196s3.839-.732 5.303-2.196c2.929-2.929 2.929-7.677 0-10.607z"/><path d="m294.026 249.908c-5.892-5.894-13.727-9.139-22.06-9.139s-16.167 3.245-22.059 9.138-9.137 13.727-9.137 22.06 3.245 16.167 9.137 22.06l192.465 192.465c1.464 1.464 3.384 2.196 5.303 2.196s3.839-.732 5.303-2.196c2.929-2.93 2.929-7.678 0-10.607l-192.464-192.466c-3.059-3.059-4.744-7.126-4.744-11.452s1.685-8.394 4.744-11.453c3.06-3.059 7.127-4.744 11.453-4.744s8.394 1.686 11.453 4.745l192.465 192.465c2.929 2.928 7.678 2.928 10.607 0 2.929-2.93 2.929-7.678 0-10.607z"/></g></g></svg>